<svg width="92" height="47" fill="none" xmlns="http://www.w3.org/2000/svg"><path d="M55.374 38.25c.625 0 1.025-.2 2.325-.2.725 0 1.75.1 2.45.1.925 0 1.925-.475 2.4-1 .15-.15.1-.35-.1-.525 0-.15-.15-.35-.275-.35-.4 0-.725.55-2.125.55-.325 0-1.85-.15-2.5-.15-.5 0-.75.025-1 .05-.025-1.475-.2-3.225-.3-5 .925 0 2.95-.075 3.7-.2.25-.05.4-.375.325-.65.025-.275-.15-.5-.4-.5-1.575 0-2.55-.1-3.75-.125-.1-1.7-.15-3.675-.05-4.45 1.35-.125 2.5-.175 4.125-.1.4 0 .55-.2.425-.6.1-.45-.05-.675-.375-.7-.75-.075-1.1-.075-1.575-.075-.775-.05-2.45.05-3.45.175-.8.1-.8.775-.675 1.35-.05 1.125.05 2.125.05 2.75 0 1.8.4 6.475.4 8.375-.075.2-.15.475-.125.725 0 .125.25.55.5.55ZM69.11 38.425c.375.025.5-.1.5-.4 0-.6-.375-.825-.525-2.1-.075-.5-.15-1.325-.25-2.15-.25-1.75-1.1-2.8-1.875-2.8-1.2 0-1.975 1.325-2.55 3.35.05-1.3 0-2.775-.025-3.175-.05-.475-.225-.6-.65-.525-.525-.1-.775.1-.75.6.025.8.2 2.225.3 3.55.125 1.275.1 2.025.1 3.075 0 .525.25.675.6.55.275.1.7-.05.75-.45.1-.925.2-1.875.425-2.75.375-1.45.95-2.65 1.475-2.9.5.325.75.975.85 1.9.1.725.225 1.425.275 2.15.175 2.125.775 2.375 1.35 2.075Z" fill="#fff"/><path d="M72.068 29.075c.375 0 .9-.425.9-1.225 0-.55-.35-1-.85-1-.575 0-.925.575-.775 1.175-.15.45 0 1.05.725 1.05Zm-2.775 15.6c2.475 0 4.2-2 4.2-4.65 0-1.1-.25-1.95-.475-3.025-.4-1.775-.55-3.6-.55-5.425-.025-.475-.275-.625-.625-.5-.45-.125-.85.05-.85.525-.05 2.125.125 4.225.525 4.875.35 1.325.6 2.8.6 3.7 0 2.05-1.15 3.4-3.075 3.4-.4 0-.725-.1-1-.125-.25-.425-.325-.925-.25-1.75.025-.3-.225-.45-.65-.3-.275-.125-.475.25-.475.975 0 1.125.25 1.6.925 1.8.225.325.975.5 1.7.5ZM76.56 38.425c1.1 0 2.875-1.325 2.875-3 0-1.05-.875-2.6-2.5-3.9.35-.35.25-.875-.125-.975-.2-.375-.675-.425-1-.05-1.05 1.05-1.675 3-1.675 4.625 0 1.825.9 3.3 2.425 3.3Zm-.075-1.25c-.625 0-.95-.95-.95-1.825 0-.975.275-2.25.875-3.15.5.675 1.7 2.125 1.7 3.15 0 1-.975 1.825-1.625 1.825ZM81.532 46.275c.525.15.75-.1.85-.675.15-.875.425-1.7.75-2.525.55-1.275 1.275-2.575 1.775-4.075.675-2 1.2-4.025 1.425-6.575.05-.475.1-.825.1-1.325 0-.475-.275-.7-.675-.6-.35-.1-.75.1-.75.575-.05 1.925-.525 4.425-.85 5.875-.625-.325-1.1-.85-1.575-2.025-.4-.975-.675-2.2-.9-3.45-.075-.475-.35-.75-.9-.65-.475-.1-.725.3-.625.85.775 4.075 2.1 6.075 3.625 6.5-.45 1.525-1.25 3.05-1.6 3.95-.3-.025-.625.15-.75.55-.375 1.15-.45 2.5-.475 3.05-.025.4.2.675.575.55ZM89.489 34.325c.325.125.65.075.7-.425.025-.575.075-1.15.125-1.725.4-3.1.85-6.525 1.225-9.6.025-.275.075-.65.05-.9-.05-.475-.4-.675-.75-.475-.7-.2-.775 0-.775.625-.1 2.95-.45 5.95-.775 8.875-.075.775-.2 1.55-.35 2.325l-.1.5c-.3.65.175.925.65.8Zm-.825 3.825c.225 0 .575-.025.9-.325.35-.325.475-.525.45-.975.025-.45-.3-.8-.75-.775-.15 0-.425-.025-.9.2-.4.275-.525.625-.525.95 0 .55.35.925.825.925Z" fill="#fff"/><path d="M3 3v18.5c0 6.627 5.373 12 12 12h28.5" stroke="#737380" stroke-dasharray="2 2"/><circle cx="3" cy="3" r="3" fill="#737380"/></svg>