<svg width="49" height="48" fill="none" xmlns="http://www.w3.org/2000/svg"><path d="M11.283 10.854c1.252 1.02 1.727.949 4.091.79l22.292-1.337c.474 0 .08-.474-.08-.554l-3.703-2.676c-.705-.554-1.654-1.179-3.466-1.028L8.837 7.63c-.79.072-.949.468-.632.785l3.078 2.439Zm1.337 5.2v23.45c0 1.259.626 1.733 2.043 1.653l24.5-1.417c1.416-.08 1.58-.942 1.58-1.97V14.479c0-1.028-.395-1.575-1.264-1.495L13.88 14.478c-.949.08-1.259.547-1.259 1.57l-.001.005Zm24.183 1.25c.158.713 0 1.418-.712 1.504l-1.18.237v17.31c-1.028.554-1.97.87-2.754.87-1.265 0-1.581-.396-2.524-1.575l-7.722-12.123v11.728l2.444.555s0 1.417-1.97 1.417l-5.436.316c-.158-.316 0-1.107.554-1.259l1.417-.396V20.384l-1.97-.158c-.158-.712.238-1.733 1.338-1.812l5.83-.396 8.04 12.282V19.434l-2.05-.238c-.158-.863.468-1.495 1.259-1.569l5.436-.322ZM7.026 5.505l22.45-1.654c2.754-.238 3.466-.08 5.198 1.179l7.17 5.04c1.178.863 1.574 1.101 1.574 2.043v27.63c0 1.733-.632 2.754-2.834 2.912l-26.08 1.575c-1.647.08-2.438-.158-3.309-1.259l-5.278-6.853c-.942-1.259-1.337-2.201-1.337-3.3V8.258c0-1.417.633-2.596 2.444-2.754l.002-.002Z" fill="#737380"/></svg>