<svg width="64" height="64" fill="none" xmlns="http://www.w3.org/2000/svg"><path d="M49.848 53.649c9.543-9.543 9.543-25.015 0-34.558s-25.015-9.543-34.558 0-9.543 25.015 0 34.558 25.015 9.543 34.558 0Z" fill="url(#a)"/><path opacity=".2" d="M15.463 32.396c.726-1.037.726-2.074 0-3.11 1.037.725 2.074.725 3.11 0-.724 1.036-.725 2.073 0 3.11-1.036-.726-2.073-.726-3.11 0Z" fill="#fff"/><path opacity=".1" d="M48.292 37.58c.726-1.037.726-2.074 0-3.11 1.037.725 2.074.725 3.11 0-.724 1.036-.725 2.073 0 3.11-1.036-.727-2.073-.726-3.11 0Zm-24.19 17.278c.726-1.036.726-2.073 0-3.11 1.037.726 2.074.726 3.11 0-.725 1.037-.726 2.074 0 3.11-1.036-.726-2.073-.725-3.11 0Z" fill="#fff"/><path d="M31.186 39.135h2.764l.346 21.728h-4.147l1.037-21.728Z" fill="url(#b)"/><path d="M31.19 39.132h1.29l-.29 21.603h-2.038l1.037-21.603Z" fill="url(#c)"/><path d="m32.395 30.752.119.053.143.065.185.09c.07.033.139.071.22.113.08.041.17.087.254.136l.281.158c.097.056.19.116.295.18.45.273.878.578 1.285.911a9.05 9.05 0 0 1 1.205 1.183c.179.215.345.441.497.676.148.232.28.473.394.723.226.497.37 1.02.418 1.562.027.271.017.547.013.825a17.544 17.544 0 0 1-.254 2.57 16.608 16.608 0 0 1-.982 3.395 16.772 16.772 0 0 1-1.578 2.961 16.02 16.02 0 0 1-1.663 2.095l-.173.18-.159.158-.263.249-.173.155-.064.053-.063-.053-.174-.155-.263-.25-.158-.157-.173-.18a16.022 16.022 0 0 1-1.663-2.095 16.592 16.592 0 0 1-2.56-6.356 17.41 17.41 0 0 1-.254-2.57c-.004-.278-.014-.554.013-.825a4.797 4.797 0 0 1 .418-1.561c.114-.25.246-.492.394-.724.152-.235.318-.46.497-.676a9.023 9.023 0 0 1 1.205-1.183c.406-.333.836-.638 1.285-.912.104-.063.198-.123.295-.179l.28-.158c.085-.05.175-.095.255-.136.08-.042.15-.08.22-.114l.185-.09c.053-.025.105-.047.143-.064l.118-.053Z" fill="#90FFF7"/><path d="M19.824 30.752v7.122c0 .492.595.739.943.39l2.994-2.992a.553.553 0 0 1 .39-.162h3.887l-3.244-9.557-4.808 4.808a.553.553 0 0 0-.162.39ZM37.02 34.265h3.887c.146 0 .287.058.39.162l2.994 2.993a.553.553 0 0 0 .943-.39v-7.123a.552.552 0 0 0-.162-.391l-4.808-4.808-3.244 9.557Z" fill="#F5F5F7"/><path d="m32.833 1.645.035.027c.023.019.06.046.102.082.085.072.22.178.373.317.323.278.76.686 1.258 1.205.5.52 1.058 1.15 1.625 1.872.146.181.283.368.427.56.148.192.282.39.427.592a25.1 25.1 0 0 1 2.355 4.15c.456 1.02.855 2.094 1.174 3.207a24.418 24.418 0 0 1 .948 6.97 25.709 25.709 0 0 1-.58 5.275 25.133 25.133 0 0 1-1.614 4.9 25.873 25.873 0 0 1-2.344 4.15l-.208.3c-.07.1-.144.197-.214.293l-.208.283-.214.276a25.245 25.245 0 0 1-1.602 1.872c-.49.519-.923.927-1.239 1.205-.15.139-.284.245-.367.317-.041.036-.077.063-.1.082l-.034.027a.702.702 0 0 1-.876 0l-.034-.027c-.022-.019-.058-.046-.1-.082-.083-.072-.217-.178-.367-.317a19.266 19.266 0 0 1-1.238-1.205 25.248 25.248 0 0 1-1.603-1.872l-.213-.276-.209-.283c-.07-.096-.143-.194-.213-.293l-.209-.3a25.848 25.848 0 0 1-2.344-4.15 25.168 25.168 0 0 1-2.194-10.176 24.41 24.41 0 0 1 .948-6.97 24.31 24.31 0 0 1 1.174-3.206 25.08 25.08 0 0 1 2.356-4.15c.145-.203.279-.4.426-.592.145-.192.281-.379.427-.56a25.001 25.001 0 0 1 1.625-1.872c.498-.519.936-.927 1.258-1.205.153-.139.289-.245.374-.317.042-.036.078-.063.101-.082l.035-.027a.71.71 0 0 1 .876 0Z" fill="#01D4E4"/><path d="M35.057 17.966a3.762 3.762 0 1 1-5.321 5.32 3.762 3.762 0 0 1 5.32-5.32Zm-4.354-7.029a2.395 2.395 0 1 0 3.387 3.387 2.395 2.395 0 0 0-3.387-3.387Z" fill="#00B0CC"/><path opacity=".3" fill-rule="evenodd" clip-rule="evenodd" d="M31.05 38.809a16.209 16.209 0 0 0 .686.615l.089.074c.03.027.058.048.079.065l.02.017.035.027c.25.2.615.209.876 0l.034-.027.023-.019c.021-.016.048-.037.077-.063l.088-.075a19.206 19.206 0 0 0 1.517-1.447 25.292 25.292 0 0 0 1.603-1.872l.213-.276.209-.283c.07-.096.144-.194.213-.293l.209-.3a25.856 25.856 0 0 0 2.344-4.15 25.118 25.118 0 0 0 2.194-10.176 24.41 24.41 0 0 0-.948-6.97 24.316 24.316 0 0 0-1.174-3.206A25.1 25.1 0 0 0 37.08 6.3c-.145-.203-.279-.4-.426-.592-.097-.13-.19-.256-.286-.38a25.024 25.024 0 0 0-1.766-2.052 18.944 18.944 0 0 0-1.258-1.205c-.11-.1-.21-.182-.29-.248l-.084-.07c-.042-.035-.078-.062-.101-.08l-.035-.028a.71.71 0 0 0-.876 0l-.035.027-.02.016-.082.066-.085.07c-.079.066-.18.148-.288.247a16.3 16.3 0 0 0-.073.063c.253.235.543.518.857.845a25 25 0 0 1 1.625 1.872c.146.181.283.368.427.56.105.137.204.276.304.418a23.905 23.905 0 0 1 .961 1.45 25.083 25.083 0 0 1 1.517 2.874 24.32 24.32 0 0 1 1.174 3.207 24.394 24.394 0 0 1 .948 6.97 25.724 25.724 0 0 1-.58 5.275 25.133 25.133 0 0 1-1.614 4.9 25.872 25.872 0 0 1-2.344 4.15l-.208.3c-.07.1-.144.197-.214.293l-.209.284-.213.275a25.268 25.268 0 0 1-1.602 1.872c-.448.474-.848.856-1.154 1.13Z" fill="#fff"/><path d="m32.396 26.994.106.05c.064.032.155.08.247.142.195.124.401.307.507.54.053.117.066.245.098.386l.091.454.218 1.089a87.44 87.44 0 0 1 .49 2.727l.121.76.114.778a80.53 80.53 0 0 1 .384 3.176c.055.524.11 1.04.155 1.538l.07.735c.02.24.055.475.05.703a1.738 1.738 0 0 1-.137.667 4.554 4.554 0 0 1-.336.622 13.593 13.593 0 0 1-1.108 1.544c-.116.14-.236.269-.336.385-.103.117-.208.22-.292.31-.087.091-.17.168-.232.23-.066.063-.12.11-.154.143l-.056.049-.056-.05c-.035-.031-.089-.08-.154-.142-.063-.062-.145-.139-.232-.23-.084-.09-.19-.194-.292-.31-.1-.116-.22-.245-.336-.386a13.594 13.594 0 0 1-1.109-1.543 4.558 4.558 0 0 1-.335-.622 1.735 1.735 0 0 1-.138-.666c-.004-.23.03-.464.05-.704l.07-.735c.046-.499.101-1.014.155-1.538a80.216 80.216 0 0 1 .384-3.176l.114-.778.12-.76a88.512 88.512 0 0 1 .491-2.727l.219-1.09.091-.453c.031-.14.044-.27.098-.386.106-.233.312-.416.507-.54a2.22 2.22 0 0 1 .247-.143l.106-.049Z" fill="#F5F5F7"/><defs><linearGradient id="a" x1="32.569" y1="-.408" x2="32.569" y2="56.761" gradientUnits="userSpaceOnUse"><stop stop-color="#06C0CF"/><stop offset="1" stop-color="#06C0CF" stop-opacity="0"/></linearGradient><linearGradient id="b" x1="23.049" y1="40.998" x2="37.577" y2="55.526" gradientUnits="userSpaceOnUse"><stop stop-color="#06C0CF"/><stop offset="1" stop-color="#06C0CF" stop-opacity="0"/></linearGradient><linearGradient id="c" x1="22.998" y1="41.615" x2="36.219" y2="54.836" gradientUnits="userSpaceOnUse"><stop stop-color="#06C0CF"/><stop offset="1" stop-color="#06C0CF" stop-opacity="0"/></linearGradient></defs></svg>