<svg width="64" height="64" fill="none" xmlns="http://www.w3.org/2000/svg"><rect width="2.199" height="4.731" rx="1.099" transform="scale(-1 1) rotate(23.009 -97.07 -37.737)" fill="#01D4E4"/><path fill-rule="evenodd" clip-rule="evenodd" d="M22.844 44.314a7.42 7.42 0 1 1 0-14.839 7.42 7.42 0 0 1 0 14.839Zm0-2.044a5.376 5.376 0 1 1 0-10.751 5.376 5.376 0 0 1 0 10.751Z" fill="#00B0CC"/><path d="m17.806 49.643 3.996-14.913a.712.712 0 0 0-.503-.872l-3.64-.975a4 4 0 0 0-4.899 2.828L8.055 53.27a4 4 0 0 0 2.829 4.898l6.025 1.615a2.739 2.739 0 0 0 3.081-4.015l-1.784-3.09a4 4 0 0 1-.4-3.035Z" fill="#01D4E4"/><path fill="#00B0CC" d="M56.428 20.286H44.877v4.775h11.55z"/><path d="M2.988 15.931a5.5 5.5 0 0 1 6.227-5.452L44.9 15.236a5.5 5.5 0 0 1 4.773 5.452v3.068a5.5 5.5 0 0 1-4.66 5.435L9.328 34.705a5.5 5.5 0 0 1-6.34-5.435V15.93Z" fill="#01D4E4" stroke="#01D4E4"/><circle cx="20.199" cy="22.673" r="14.676" fill="#00B0CC"/><circle cx="20.2" cy="22.673" r="11.596" fill="#01D4E4"/><circle cx="20.199" cy="22.673" r="4.439" fill="#01D4E4" style="mix-blend-mode:multiply"/><circle cx="13.815" cy="27.704" r="1.152" transform="rotate(9.081 13.815 27.704)" fill="#01D4E4" style="mix-blend-mode:multiply"/><circle r="1.152" transform="scale(1 -1) rotate(9.081 117.13 78.23)" fill="#01D4E4" style="mix-blend-mode:multiply"/><circle cx="18.151" cy="29.98" r="1.152" transform="rotate(9.081 18.151 29.98)" fill="#01D4E4" style="mix-blend-mode:multiply"/><circle r="1.152" transform="scale(1 -1) rotate(9.081 104.972 106.667)" fill="#01D4E4" style="mix-blend-mode:multiply"/><circle cx="22.731" cy="29.98" r="1.152" transform="rotate(9.081 22.731 29.98)" fill="#01D4E4" style="mix-blend-mode:multiply"/><circle r="1.152" transform="scale(1 -1) rotate(9.081 107.262 135.504)" fill="#01D4E4" style="mix-blend-mode:multiply"/><circle cx="26.079" cy="27.704" r="1.152" transform="rotate(9.081 26.079 27.704)" fill="#01D4E4" style="mix-blend-mode:multiply"/><circle r="1.152" transform="scale(1 -1) rotate(9.081 123.262 155.443)" fill="#01D4E4" style="mix-blend-mode:multiply"/><circle r="1.152" transform="scale(1 -1) rotate(9.081 161.814 227.633)" fill="#01D4E4" style="mix-blend-mode:multiply"/><circle r="1.152" transform="scale(1 -1) rotate(9.081 163.966 254.736)" fill="#01D4E4" style="mix-blend-mode:multiply"/><circle r="1.152" transform="scale(1 -1) rotate(9.081 166.118 281.839)" fill="#01D4E4" style="mix-blend-mode:multiply"/><circle cx="57.288" cy="22.673" r="4.224" fill="#01D4E4"/></svg>