<svg width="64" height="64" fill="none" xmlns="http://www.w3.org/2000/svg"><path d="M24.11 34.29h15.976L47.016 64H15.544l8.565-29.71Z" fill="url(#a)"/><mask id="c" style="mask-type:alpha" maskUnits="userSpaceOnUse" x="13" y="4" width="38" height="28"><path fill-rule="evenodd" clip-rule="evenodd" d="M14.887 28.978a18.62 18.62 0 0 1-.996-6.032c0-10.155 8.107-18.388 18.108-18.388 10 0 18.108 8.233 18.108 18.388 0 2.113-.351 4.142-.997 6.032-4.963 1.764-10.828 2.784-17.111 2.784-6.284 0-12.15-1.02-17.112-2.784Z" fill="url(#b)"/></mask><g mask="url(#c)"><path opacity=".18" d="M79.415 18.807 26.14 15.816l-.01.165 53.277 2.991.01-.165Z" fill="#fff"/><path d="M31.501 26.727c2.076.117 3.795-.425 3.839-1.211.044-.785-1.603-1.517-3.679-1.633-2.076-.117-3.794.425-3.838 1.211-.045.785 1.602 1.517 3.678 1.633Z" fill="#EDEDF4"/><path opacity=".15" d="M32.107 26.646s-3.609-.028-3.777-1.598c-.066-.738 1.657-1.075 3.49-1.127-2.096-.064-3.783.367-3.812 1.142-.029.774 1.55 1.475 3.683 1.634a.769.769 0 0 1 .416-.051Z" fill="#73737F"/><path d="M31.544 26.345c1.851.104 3.382-.358 3.42-1.031.038-.674-1.432-1.304-3.284-1.407-1.851-.104-3.383.357-3.42 1.03-.038.674 1.432 1.304 3.284 1.407Z" fill="#fff"/><path d="M31.557 26.337c1.852.104 3.383-.358 3.42-1.031.039-.674-1.431-1.303-3.283-1.408-1.851-.103-3.383.358-3.42 1.031-.038.674 1.432 1.304 3.283 1.408Z" fill="#BCBCCC"/><path d="M31.551 26.305c1.795.1 3.279-.318 3.314-.935.034-.617-1.393-1.2-3.189-1.3-1.795-.1-3.278.318-3.313.935-.035.617 1.393 1.199 3.188 1.3Z" fill="#73737F"/><path d="M29.548 24.251s.606-.124 1 .05c-.489-.138-1-.05-1-.05ZM33.78 24.476s-.585-.102-1.002-.05c.512-.089 1.001.05 1.001.05Z" fill="#8F8F99"/><path opacity=".15" d="M31.784 23.826c1.395.226 2.352.73 2.345 1.278-.065.68-1.431 1.096-3.206 1.017-.68-.066-1.36-.131-1.885-.365.563.328 1.505.51 2.506.561 1.87.044 3.367-.315 3.396-1.09.065-.679-1.345-1.226-3.156-1.4Z" fill="#73737F"/><path d="m33.094 23.23-2.844-.159-.097 1.727 2.845.16.096-1.727Z" fill="#73737F"/><path opacity=".15" d="M31.996 24.944c.095-.037.19-.073.322-.015 0 0-.095.037-.322.015Z" fill="#73737F"/><path d="M31.67 23.555c.785.044 1.432-.102 1.445-.327.012-.224-.614-.442-1.4-.486-.785-.044-1.432.102-1.445.327-.012.224.614.442 1.4.486Z" fill="#8F8F99"/><path d="M31.704 23.437c.73.041 1.329-.062 1.338-.23.01-.169-.574-.338-1.303-.38-.73-.04-1.329.063-1.338.231-.01.169.574.338 1.303.38Z" fill="#73737F"/><path d="m32.908 23.067.217-3.682-2.483.629-.152 3.002.015.322c.168.153.657.292 1.205.299.548.007.964-.044 1.249-.154l-.051-.416Z" fill="#69DDAE"/><path d="M31.228 21.533s1.944 1.65 4.15.583c2.241-.973 4.242-3.706 3.955-9.264-.383-5.523-8.06-7.908-11.302-2.735-3.745 6.13 3.197 11.416 3.197 11.416Z" fill="#75F1C1"/><path d="M39.268 14.948c-.24 3.908-1.948 5.984-3.81 6.81-2.148.936-4.055-.62-4.055-.62s-6.81-5.227-3.182-11.094c1.292-2.024 3.25-2.887 5.156-2.749-2.001-.101-4.09.703-5.44 2.858-3.782 6.036 3.196 11.417 3.196 11.417s1.944 1.65 4.15.582c1.957-.862 3.855-3.01 3.985-7.204Z" fill="#69DDAE"/><path opacity=".42" d="M30.785 18.093c.617.94 1.689 1.325 2.393.863.704-.463.775-1.6.158-2.539-.617-.94-1.688-1.325-2.393-.863-.704.463-.775 1.6-.158 2.539ZM35.944 19.163c.648.539 1.756.275 2.474-.59.718-.864.775-2.002.127-2.54-.648-.539-1.756-.275-2.474.59-.719.864-.775 2.001-.127 2.54Z" fill="#A7A9CA"/><path d="M31.027 18.108c.617.939 1.689 1.325 2.393.862.705-.462.775-1.599.158-2.538-.617-.94-1.688-1.326-2.393-.863-.704.463-.775 1.6-.158 2.539Z" fill="#fff"/><path opacity=".16" d="M33.98 17.639c-.043.453-.218.847-.467 1.052-.591.446-1.512.037-2.03-.745-.52-.781-.469-1.782.123-2.228.591-.445 1.512-.037 2.03.745.074.19.242.343.22.57-.073-.19-.183-.475-.35-.629-.593-.971-1.703-1.307-2.39-.824-.686.482-.795 1.615-.203 2.586.592.971 1.702 1.307 2.389.824.533-.314.671-.803.678-1.351Z" fill="#A7A9CA"/><path d="M36.206 19.163c.648.538 1.756.274 2.474-.59.718-.864.775-2.002.127-2.54-.649-.54-1.756-.275-2.475.59-.718.863-.775 2-.126 2.54Z" fill="#fff"/><path d="M31.203 14.674s.497-.41 1.688-.432c1.19-.022.13-1.359-1.235-.942-1.235.476-1.044 1.82-.453 1.374ZM39.304 15.043s-.314-.533-1.367-1c-1.088-.562.49-1.278 1.498-.358s.22 1.986-.131 1.358Z" fill="#3CAF8E"/><path opacity=".42" d="M31.065 13.746s-.65.577-.43 1.147c.219.57.722-.387 1.855-.278 1 .05 1.139-.439.861-.877 0 0 .11.285-.401.373-.548-.007-1.286.059-1.724.336-.438.278-.41-.496-.161-.7ZM38.383 13.217s-.321.015-.438.278c-.117.263.899.635 1.308 1.132.278.438.54.555.563.328 0 0-.08.358-.402.373l-.132-.058.037.095s-.314-.534-1.33-.906c-.957-.503-.738-1.35.394-1.242Z" fill="#A7A9CA"/><path opacity=".16" d="M36.647 18.901c-.599-.423-.548-1.424.124-2.228.576-.767 1.599-.943 2.198-.52.132.06.168.154.205.25-.073-.19-.146-.38-.41-.497-.635-.519-1.753-.307-2.483.629-.767.84-.744 2.03-.108 2.55.635.518 1.658.342 2.366-.367-.686.482-1.387.643-1.892.183Z" fill="#A7A9CA"/><path d="M34.873 20.239c-.548-.008-1.074-.241-1.3-.263l-.037-.095.095-.036c.226.021.847.219 1.395.226 0 0 .132.058.037.095 0 0-.059.131-.095.036.131.058 0 0-.095.037Z" fill="#3CAF8E"/><path d="M34.764 25.622c-.204-.248-.657-.292-1.052-.467-.358-.08-.752-.255-.789-.35-.036-.095-.05-.416-.102-.833-.015-.321.102-.584.102-.584s-.146 1.037-.036 1.322c.073.19.43.27.789.35.49.139.884.314 1.088.562ZM33.15 26.244c.022-.227-.35-.628-.687-.935-.204-.248-.372-.402-.409-.497-.11-.284.036-1.322.036-1.322s-.146 1.038-.036 1.323c.037.095.205.248.41.496.335.307.708.708.686.935ZM29.433 25.931c.175-.394.708-.709 1.183-.891.19-.073.38-.147.438-.278.153-.168.036-1.322.036-1.322s.022 1.19-.131 1.358c-.095.037-.248.205-.438.278-.38.146-.913.46-1.088.855Z" fill="#8F8F99"/><path d="M28.483 24.88c.116-.263.854-.33 1.402-.322.226.022.511-.088.511-.088.059-.132.087-.906.073-1.227 0 0 .014.321-.007.548-.059.131-.007.547-.066.679 0 0-.19.073-.511.088-.511.088-1.25.154-1.402.322ZM31.58 24.995c-.095.037-.227-.021-.322.015-.358-.08-.62-.197-.62-.197s.262.117.62.197.906.087 1.44-.227a3.66 3.66 0 0 1-1.118.212Z" fill="#8F8F99"/><path opacity=".15" d="M31.77 24.922c-.132-.058-.168-.153-.205-.248l.073-1.227c-.775-.03-1.396-.226-1.374-.453l.008.87c-.738.066-1.308.285-1.65.526.13.059.072.19-.023.227.249-.205.723-.388 1.33-.512-.607.124-1.176.344-1.425.548 0 0 .628-.35 1.702-.11.03.643.863.54.826.445-.037-.095-.205-.248.19-.073l.68.066-.132-.059Zm-1.71-.759c-.095.037-.095.037 0 0-.095.037-.095.037 0 0Zm.19-.073-.19.073.19-.073Z" fill="#73737F"/><path d="M23.08 34.919c-.066-.738-.607-1.293-1.25-1.263l-5.953.111-.014 2.513 5.99-.017c.738-.066 1.256-.701 1.227-1.344ZM41.1 35.284l-3.619-9.4a1.347 1.347 0 0 0-1.71-.759 1.347 1.347 0 0 0-.758 1.71l3.62 9.4a1.347 1.347 0 0 0 1.709.759c.76-.293 1.015-1.045.759-1.71Z" fill="#D5D5E0"/><path d="M35.809 25.22a1.347 1.347 0 0 1 1.71.76l.511 1.328-1.752 2.529-1.133-2.944c-.293-.76-.001-1.417.664-1.673Z" fill="#BCBCCC"/><path d="M39.173 36.79c-.6-.424-.702-1.256-.242-1.76l3.614-4.772 2.002 1.518-3.482 4.83c-.46.505-1.293.607-1.892.184Z" fill="#D5D5E0"/><path d="M39.437 36.906s-.095.037-.132-.058l.132.058c.131.059.51-.088 1.066-.628.401-.373.92-1.009 1.496-1.776 1-1.366 1.774-2.755 1.774-2.755s-.868 1.425-1.774 2.755c-.576.767-1.095 1.403-1.496 1.776-.46.504-.84.65-1.066.628Z" fill="#EDEDF4"/><path opacity=".15" d="M39.912 36.724a.649.649 0 0 1-.22-.57c-.014-.321.008-.548.22-.848l3.365-4.566-.767-.577-3.06 4.23-2.8-8.406c-.702.161-1.067.629-1.264 1.25l3.437 8.925c.22.57.877.861 1.483.737l.38-.146c-.38.146-.606.124-.774-.03Z" fill="#73737F"/><path d="M27.218 24.712c-.658-.291-1.454-.094-1.746.564l-4.65 8.877c-.291.657-.094 1.453.564 1.745.657.292 1.453.095 1.745-.563l4.65-8.877c.292-.657.094-1.454-.563-1.745Z" fill="#D5D5E0"/><path d="M27.218 24.712c-.658-.291-1.454-.094-1.746.564l-.62 1.22 1.476 2.702 1.453-2.74c.292-.657.094-1.454-.563-1.745Z" fill="#BCBCCC"/><path opacity=".15" d="M27.218 24.712c-.563-.328-1.322-.036-1.65.527l-4.512 8.388-5.31.082.139.928.504.46 4.441-.075s.965-.044 1.585-1.264l.058-.132 2.482-4.88a.797.797 0 0 1 1.49.189l.037.095 1.452-2.74c.139-.49-.059-1.286-.716-1.578Z" fill="#73737F"/><path d="m32.046 23.943-.358-.08-.19.073-.453-.044-3.952 1.631-.765 3.675.136 9.978 4.134.261.227.022 4.003.203 1.318-9.884-.367-3.784-3.733-2.05Z" fill="#D5D5E0"/><path opacity=".15" d="M36.043 28.946c-.556-.877-1.564-1.797-2.937-2.25.51-.087.927-.138 1.365-.416.913-.46.92-1.009.511-1.505l-2.937-.832-.453-.043-.226-.022-.453-.044-4.733.733.188 14.646 2.002.101-.61-11.212c.854-.33 2.066-.578 3.483-.579 2.455.145 3.916 1.109 4.756 1.875l-.036-.094.08-.358Zm-8.255-1.619s-.125-.606.577-.767c.19-.073.548.007 1 .05-.606.125-1.175.345-1.577.717Z" fill="#73737F"/><path d="m32.047 23.943-.453-.043-.227-.022-.094.036-.322.015-4.733.733.016 4.572s1.198-1.987 4.974-1.806c3.718.313 4.75 2.423 4.75 2.423l.53-4.565-4.441-1.343Z" fill="#BCBCCC"/><path opacity=".15" d="m27.628 28.043-.03-.643s.03-.774.767-.84c.702-.161 3.996.75 6.107-.28.913-.46.92-1.009.51-1.505l-2.936-.832-.453-.043-.227-.022-.095.036-.32.015-4.734.733.016 4.572c.095-.036.519-.635 1.395-1.191Z" fill="#73737F"/><path opacity=".15" d="M31.36 27.26c-3.777-.181-5.032 1.938-5.032 1.938s1.292-2.024 5.032-1.938c3.755.408 4.75 2.423 4.75 2.423s-.937-2.147-4.75-2.423Z" fill="#73737F"/><path d="M31.5 26.727c2.075.117 3.794-.425 3.838-1.21.044-.786-1.603-1.517-3.679-1.634-2.076-.117-3.794.426-3.838 1.211-.045.786 1.602 1.517 3.678 1.633Z" fill="#EDEDF4"/><path opacity=".15" d="M32.105 26.646s-3.609-.028-3.777-1.598c-.066-.738 1.657-1.075 3.49-1.127-2.096-.064-3.783.367-3.812 1.142-.029.774 1.55 1.475 3.683 1.634a.77.77 0 0 1 .416-.051Z" fill="#73737F"/><path d="M31.542 26.345c1.851.104 3.383-.358 3.42-1.031.038-.674-1.432-1.304-3.284-1.407-1.851-.104-3.383.357-3.42 1.03-.038.674 1.432 1.304 3.284 1.407Z" fill="#fff"/><path d="M31.557 26.337c1.852.104 3.383-.358 3.42-1.031.039-.674-1.431-1.303-3.283-1.408-1.851-.103-3.383.358-3.42 1.031-.038.674 1.432 1.304 3.283 1.408Z" fill="#BCBCCC"/><path d="M31.551 26.305c1.795.1 3.279-.318 3.314-.935.034-.617-1.393-1.2-3.189-1.3-1.795-.1-3.278.318-3.313.935-.035.617 1.393 1.199 3.188 1.3Z" fill="#73737F"/><path d="M29.548 24.251s.606-.124 1 .05c-.489-.138-1-.05-1-.05ZM33.777 24.476s-.584-.102-1-.05c.51-.089 1 .05 1 .05Z" fill="#8F8F99"/><path opacity=".15" d="M31.784 23.826c1.395.226 2.352.73 2.345 1.278-.065.68-1.431 1.096-3.206 1.017-.68-.066-1.36-.131-1.885-.365.563.328 1.505.51 2.506.561 1.87.044 3.367-.315 3.396-1.09.065-.679-1.345-1.226-3.156-1.4Z" fill="#73737F"/><path d="m33.094 23.23-2.844-.159-.097 1.727 2.845.16.096-1.727Z" fill="#73737F"/><path opacity=".15" d="M31.996 24.944c.095-.037.19-.073.322-.015 0 0-.095.037-.322.015Z" fill="#73737F"/><path d="M31.67 23.555c.785.044 1.432-.102 1.445-.327.012-.224-.614-.442-1.4-.486-.785-.044-1.432.102-1.445.327-.012.224.614.442 1.4.486Z" fill="#8F8F99"/><path d="M31.704 23.437c.73.041 1.329-.062 1.338-.23.01-.169-.574-.338-1.303-.38-.73-.04-1.329.063-1.338.231-.01.169.574.338 1.303.38Z" fill="#73737F"/><path d="m32.908 23.067.217-3.682-2.483.629-.152 3.002.015.322c.168.153.657.292 1.205.299.548.007.964-.044 1.249-.154l-.051-.416Z" fill="#69DDAE"/><path d="M31.228 21.533s1.944 1.65 4.15.583c2.241-.973 4.242-3.706 3.955-9.264-.383-5.523-8.06-7.908-11.302-2.735-3.745 6.13 3.197 11.416 3.197 11.416Z" fill="#75F1C1"/><path d="M39.268 14.948c-.24 3.909-1.948 5.984-3.81 6.81-2.148.936-4.055-.62-4.055-.62s-6.81-5.227-3.182-11.094c1.292-2.024 3.25-2.887 5.156-2.749-2.001-.101-4.09.703-5.44 2.859-3.782 6.035 3.196 11.416 3.196 11.416s1.944 1.65 4.15.582c1.957-.862 3.855-3.01 3.985-7.204Z" fill="#69DDAE"/><path opacity=".42" d="M30.785 18.093c.617.94 1.689 1.325 2.393.863.704-.463.775-1.6.158-2.539-.617-.94-1.688-1.325-2.393-.863-.704.463-.775 1.6-.158 2.54ZM35.944 19.163c.648.539 1.756.275 2.474-.59.718-.864.775-2.002.127-2.54-.648-.539-1.756-.275-2.474.59-.719.864-.775 2.001-.127 2.54Z" fill="#A7A9CA"/><path d="M31.027 18.108c.617.939 1.689 1.325 2.393.862.705-.462.775-1.599.158-2.538-.617-.94-1.688-1.326-2.393-.863-.704.463-.775 1.6-.158 2.539Z" fill="#fff"/><path opacity=".16" d="M33.98 17.639c-.043.453-.218.847-.467 1.052-.591.446-1.512.037-2.03-.744-.52-.782-.469-1.783.123-2.228.591-.446 1.512-.038 2.03.744.074.19.242.343.22.57-.073-.19-.183-.475-.35-.629-.593-.971-1.703-1.306-2.39-.824-.686.482-.795 1.615-.203 2.586.592.971 1.702 1.307 2.389.824.533-.314.671-.803.678-1.351Z" fill="#A7A9CA"/><path d="M36.206 19.163c.648.538 1.756.274 2.474-.59.718-.864.775-2.002.127-2.54-.649-.54-1.756-.275-2.475.59-.718.863-.775 2-.126 2.54Z" fill="#fff"/><path d="M31.203 14.674s.497-.41 1.688-.432c1.19-.022.13-1.359-1.235-.942-1.235.476-1.044 1.82-.453 1.374ZM39.304 15.043s-.314-.533-1.367-1c-1.088-.562.49-1.278 1.498-.358s.22 1.986-.131 1.358Z" fill="#3CAF8E"/><path opacity=".42" d="M31.065 13.746s-.65.577-.43 1.147c.219.57.722-.387 1.855-.278 1 .05 1.139-.439.861-.877 0 0 .11.285-.401.373-.548-.007-1.286.059-1.724.336-.438.278-.41-.496-.161-.7ZM38.383 13.217s-.321.015-.438.278c-.117.263.899.635 1.308 1.132.278.438.54.555.563.328 0 0-.08.358-.402.373l-.132-.058.037.095s-.314-.534-1.33-.906c-.957-.503-.738-1.35.394-1.242Z" fill="#A7A9CA"/><path opacity=".16" d="M36.647 18.901c-.599-.423-.548-1.424.124-2.228.576-.767 1.599-.943 2.198-.52.132.06.168.154.205.25-.073-.19-.146-.38-.41-.497-.635-.519-1.753-.307-2.483.629-.767.84-.744 2.03-.108 2.55.635.518 1.658.342 2.366-.367-.686.482-1.387.643-1.892.183Z" fill="#A7A9CA"/><path d="M34.873 20.239c-.548-.007-1.074-.241-1.3-.263l-.037-.095.095-.036c.226.021.847.219 1.395.226 0 0 .132.058.037.095 0 0-.059.131-.095.036.131.058 0 0-.095.037Z" fill="#3CAF8E"/><path d="M34.764 25.622c-.204-.248-.657-.292-1.052-.467-.358-.08-.752-.255-.789-.35-.036-.095-.05-.416-.102-.833-.015-.321.102-.584.102-.584s-.146 1.037-.036 1.322c.073.19.43.27.789.35.49.139.884.314 1.088.562ZM33.15 26.244c.022-.227-.35-.628-.687-.935-.204-.248-.372-.402-.409-.497-.11-.284.036-1.322.036-1.322s-.146 1.038-.036 1.323c.037.095.205.248.41.496.335.307.708.708.686.935ZM29.433 25.931c.175-.394.708-.709 1.183-.891.19-.073.38-.147.438-.278.153-.168.036-1.322.036-1.322s.022 1.19-.131 1.358c-.095.037-.248.205-.438.278-.38.146-.913.46-1.088.855Z" fill="#8F8F99"/><path d="M28.483 24.88c.116-.263.854-.33 1.402-.322.226.022.511-.088.511-.088.059-.132.087-.906.073-1.227 0 0 .014.321-.007.548-.059.131-.007.547-.066.679 0 0-.19.073-.511.088-.511.088-1.25.154-1.402.322ZM31.58 24.995c-.095.037-.227-.021-.322.015-.358-.08-.62-.197-.62-.197s.262.117.62.197.906.087 1.44-.227a3.66 3.66 0 0 1-1.118.212Z" fill="#8F8F99"/><path d="M43.201 31.405c.542.4 1.117.543 1.284.317.167-.226-.137-.734-.68-1.135-.541-.401-1.116-.543-1.283-.317-.167.226.137.734.679 1.135Z" fill="#EDEDF4"/><path d="M43.28 31.33c.496.367 1.008.519 1.141.338.134-.18-.16-.625-.658-.993-.497-.367-1.008-.519-1.142-.338-.133.18.161.625.658.993Z" fill="#BCBCCC"/><path d="m44.86 30.892-1.534-1.153-.519.636-.153.168c.073.19.314.533.746.803.336.306.694.387.92.409l.117-.263.423-.6Z" fill="#73737F"/><path opacity=".15" d="M43.46 31.214c-.147-.38.313-.883.313-.883l.19-.074-.73-.482-.52.636-.152.168c.073.19.314.533.745.803.336.307.694.387.92.41l.117-.264c-.285.11-.774-.029-.884-.314Z" fill="#73737F"/><path d="M43.858 30.604c.451.334.899.495 1 .36.1-.136-.186-.517-.638-.85-.451-.335-.899-.496-1-.36-.1.135.186.516.638.85Z" fill="#8F8F99"/><path d="M42.691 30.638c.344-.242.614-.673.614-.673-.095.037-.329.563-.614.673ZM42.933 30.98c.248-.204.518-.635.518-.635s-.058.132-.212.3l-.306.336ZM43.269 31.288s.423-.6.518-.636c-.058.131-.518.636-.518.636ZM43.83 31.616s.27-.43.483-.73c-.249.204-.482.73-.482.73ZM44.19 31.696s.175-.394.482-.73c-.307.336-.482.73-.482.73Z" fill="#8F8F99"/><path d="m45.305 30.067-.95-1.052-.934.687c-.059.132.182.475.519.782.336.306.789.35.884.313l.481-.73Z" fill="#75F1C1"/><path d="M45.043 29.95c-1.292.607-1.921-.46-2.024-1.292-.066-.738-.519-.782-.87-1.41-.35-.628.35-.789.35-.789 1.286-.059 1.55 1.475 1.55 1.475s.612-3.506 2.314-3.617c1.702-.11 2.272 1.088 1.55 1.475-.629.351-1.696-.437-1.696-.437s-.773 1.388-.73 2.352c0 0 .556-.54 1.213-.249.79.35 1.353 2.096.36 2.915-.899.782-1.849-.27-.57-1.198 0 0-.125-.606-.33-.854.263.116.023 2.607-1.117 1.629Z" fill="#75F1C1"/><path d="M46.745 29.84c.212-.3.613-.673.336-1.11-.242-.344-.563-.33-.563-.33.168.154.33.855.33.855-1.184.892-.497 1.827.321 1.403-.416.05-.789-.35-.424-.818ZM43.495 28.475c-.14-.927-1.024-1.241-.79-1.767.058-.132.248-.205.343-.241-.131-.059-.358-.08-.453-.044 0 0-.7.161-.35.79.35.627.804.67.87 1.409.066.737.731 1.898 1.929 1.328-1.06.081-1.505-.51-1.55-1.475ZM45.999 24.785c.533-.314.95-.366 1.402-.322-.263-.117-.584-.102-.906-.087-1.607.074-2.328 3.295-2.35 3.522 0 0 .883-2.52 1.854-3.113Z" fill="#69DDAE"/><path d="M44.948 29.987s-.037-.095 0 0c.328-.563.152-1.586.152-1.586l.095-.036.037.095.03.643c-.08.358-.103.584-.314.884Z" fill="#3CAF8E"/><path d="m31.435 28.867-.146-.38-1.35 2.156.416-.052 1.08-1.724ZM31.165 30.715l1.227.073-.848-1.636-.037-.095-1.022 1.593.417-.051.635-.9.256.665-.453-.043-.175.394Z" fill="#fff"/><path d="m31.326 28.582-1.387 2.06.416-.05 1.08-1.725-.109-.285ZM31.165 30.715l1.227.073-.848-1.636-1.058 1.498.416-.052.635-.898.256.664-.453-.043-.175.394Z" fill="#BCBCCC"/><path d="m31.231 28.619-1.197 1.987.227.022 1.175-1.761-.205-.248ZM30.58 30.613l.965-1.461.81 1.54-1.19.023.212-.3.548.008-.388-.723-.635.898-.321.015Z" fill="#fff"/><path d="M15.22 33.476s-.725-2.447-1.69-3.82c-.964-1.373-2.345-1.278-2.542-.657-.197.621.811 1.541 1.724 1.08 0 0 .775 1.447.776 2.864 0 0-1.784-2.366-3.054-1.986-1.271.38-.745 2.031.402 1.045 0 0 .884.313 1.191 1.395.307 1.08.235 2.308 1.104 2.3.226.022.285-.11.57-.22.168.154.3.212.62.198.512-.088.65-.578 1.337-1.06.475-.183.928-.14 1.38-.096 1.396.226-.402-2.461-1.819-1.043Z" fill="#75F1C1"/><path d="M16.052 33.373c-.927.14-1.256.702-1.256.702s-.431-1.688-1.221-3.455c-.79-1.768-2.127-2.125-2.419-1.467-.116.263-.08.358-.007.548.336.306.863.54 1.432.32 0 0 .775 1.446.776 2.864l-.037-.095s-1.527-1.702-2.623-1.716c-.548-.007-.833.103-1.081.307-.329.563.285 1.308 1.184.526 0 0 .884.314 1.19 1.394.235.892.184 1.892.747 2.22.453.044.818-.423 1.344-.19.358.08.701-.16 1.14-.438.057-.132.247-.205.4-.373.286-.11.607-.125.928-.14 1.096.015.563-1.088-.497-1.007Z" fill="#69DDAE"/><path opacity=".15" d="M31.77 24.922c-.132-.058-.168-.153-.205-.248l.073-1.227c-.775-.03-1.396-.226-1.374-.453l.008.87c-.738.066-1.308.285-1.65.526.13.059.072.19-.023.227.249-.205.723-.388 1.33-.512-.607.124-1.176.344-1.425.548 0 0 .628-.35 1.702-.11.03.643.863.54.826.445-.037-.095-.205-.248.19-.073l.68.066-.132-.059Zm-1.71-.759c-.095.037-.095.037 0 0-.095.037-.095.037 0 0Zm.19-.073-.19.073.19-.073ZM28.8 32.499a.509.509 0 1 0 .95-.366.509.509 0 0 0-.95.366Z" fill="#73737F"/><path d="M28.99 32.426a.407.407 0 1 0 .76-.293.407.407 0 0 0-.76.293Z" fill="#EDEDF4"/><path opacity=".15" d="m26.423 29.161-.06-2.703-.028 2.192c-.088-.511-.35-.628-.35-.628-.096.036.335.306.438 1.14-.095.036-.095.036 0 0-.095.036-.095.036 0 0-.095.036 0 0 0 0Z" fill="#73737F"/><path d="m16.17 35.944 4.668-.053s.321-.014.738-.066c.416-.051.89-.234 1.22-.797.634-.898 3.24-5.173 3.204-5.268 0 0-2.57 4.37-3.205 5.268-.211.3-.518.636-1.22.797-.416.051-.737.066-.737.066l-4.668.053ZM26.502 24.552c.037.095.037.095.168.153l.511-.088s.095-.036.059-.131c-.037-.095-.037-.095-.132-.059l-.511.088c-.132-.058-.19.073-.095.037ZM36.547 25.154c-.058.132-.059.132-.19.073l-.49-.138-.036-.095c-.037-.095.058-.132.095-.037l.49.139c.19-.073.226.021.13.058Z" fill="#EDEDF4"/><path opacity=".19" d="m52.7 29.728-13.134.151c-.095.037-.132-.058-.168-.153l.754-13.047c-.036-.095.059-.131.154-.168l13.06 1.076c.096-.037.132.058.074.19l-.682 11.82c.037.094-.058.13-.058.13Z" fill="#fff"/><path opacity=".27" d="m53.477 17.872-13.288-1.098.022-.226c-.037-.095.058-.132.153-.168l13.062 1.076c.094-.037.131.058.073.19l-.022.226Z" fill="#fff"/><path opacity=".05" d="m52.078 29.53-4.8-.005.682-11.82 4.85.423-.674 11.271c.131.059.036.095-.058.132Z" fill="#fff"/><path opacity=".05" d="m51.185 26.93-2.418-.05c-.416.052-.694-.387-.614-.744l.392-6.911a.752.752 0 0 1 .708-.709l2.586.204c.358.08.694.387.614.745l-.406 6.589c-.139.49-.445.825-.862.877Z" fill="#fff"/><path opacity=".29" d="m50.837 27.72-2.645-.072-.036-.095.095-.037 2.644.072c-.037-.095 0 0-.059.132.096-.037 0 0 0 0Z" fill="#fff"/><g opacity=".46" fill="#fff"><path opacity=".29" d="m50.018 28.143-1.87-.043 1.87.043c-.037-.095-.037-.095 0 0ZM49.673 28.385l-1.548-.058 1.548.058c-.036-.095.059-.132 0 0ZM50.333 28.677l-2.287.008 2.287-.008c.058-.132.058-.132 0 0 .095-.037 0 0 0 0ZM50.31 28.903l-2.287.008 2.286-.008c.059-.131.059-.131 0 0 .095-.036 0 0 0 0Z"/></g><g opacity=".27" fill="#fff"><path opacity=".27" d="m40.97 17.672 1.776.08c.095-.037.095-.037.153-.168-.036-.095-.036-.095-.168-.153l-1.775-.08c-.095.037-.095.037-.153.168.036.095.036.095.168.153ZM41.315 21.682c.036.095.036.095.168.154l1.775.08c.095-.037.095-.037.153-.169-.037-.095-.037-.095-.168-.153l-1.87-.043s-.095.037-.058.131ZM44.038 18.562l-1.68-.116c-.095.037-.095.037-.153.168.036.095.036.095.168.154l1.68.116c.095-.037.095-.037.058-.132.022-.226.022-.226-.073-.19ZM42.228 19.805l1.68.116c.095-.037.095-.037.154-.168-.037-.095-.037-.095-.169-.153l-1.68-.117c-.095.037-.095.037-.153.168.036.095.073.19.168.154ZM45.164 20.636c-.037-.095-.037-.095-.132-.058l-1.68-.116c-.095.036-.095.036-.153.168.036.095.036.095.168.153l1.68.116c.058-.131.153-.168.117-.263ZM44.448 19.059c-.037-.095-.037-.095-.168-.154l-2.002-.101c-.095.037-.095.037-.153.168.036.095.036.095.168.153l2.001.102c.095-.037.095-.037.154-.168Z"/><path opacity=".27" d="M42.234 19.257c-.095.036-.095.036-.154.168.037.095.037.095.168.153l1.228.073c.095-.037.095-.037.153-.168-.037-.095-.037-.095-.168-.154l-1.227-.072ZM41.403 22.194l1.227.072c.095-.036.095-.036.153-.168-.036-.095-.036-.095-.168-.153l-1.227-.073c-.095.037-.095.037-.153.169.036.095.036.094.168.153ZM43.102 17.832l.453.044c.095-.037.095-.037.154-.168-.037-.095-.037-.095-.168-.154l-.453-.043c-.095.036-.095.036-.154.168.037.095.037.095.169.153ZM43.914 17.956l.453.044c.095-.037.095-.037.059-.132-.037-.095-.037-.095-.169-.153l-.452-.044c-.095.037-.095.037-.059.131.132.059.132.059.168.154ZM45.711 17.81l-.905-.088c-.095.037-.095.037-.059.131.037.095.037.095.168.154l.906.087c.095-.036.095-.036.059-.131-.037-.095-.074-.19-.169-.154Z"/><path opacity=".27" d="m46.01 18.02.227.023c.095-.037.095-.037.059-.132-.037-.095-.037-.095-.132-.058l-.226-.022c-.095.037-.095.037-.059.131.037.096.132.059.132.059ZM40.752 21.354l1.775.08c.095-.037.095-.037.154-.169-.037-.094-.037-.095-.168-.153l-1.776-.08c-.095.037-.095.037-.153.169-.058.131.073.19.168.153ZM42.886 21.514l.548.007c.095-.037.095-.037.154-.168-.037-.095-.037-.095-.168-.153l-.548-.008c-.095.037-.095.037-.154.169.037.095.037.095.168.153ZM42.23 22.639c-.096.036-.096.036-.154.168.036.095.036.095.168.153l.548.007c.095-.036.095-.036.153-.168-.037-.095-.037-.095-.168-.153l-.548-.007ZM42.259 23.282l1 .05c.096-.036.096-.036.154-.167.058-.132-.037-.095-.131-.059l-1.001-.05c-.095.036-.095.036-.154.168 0 0 .037.095.132.058Z"/><path opacity=".27" d="m45.55 21.36-.868.007-.095.037-.906-.088c-.095.037-.095.037-.153.168.036.095.036.095.168.154l.905.087.095-.037.87-.007c.094-.037.095-.037.058-.132l-.073-.19ZM46.1 21.366l-.227-.021c-.095.036-.095.036-.058.131s.037.095.132.058l.226.022c.095-.036.095-.036.058-.131-.095.036-.095.036-.131-.059ZM43.629 18.066c.037.094.037.094.168.153l.453.043c.095-.036.095-.036.058-.131-.036-.095-.036-.095-.168-.153l-.453-.044-.058.131ZM43.849 20.052l-.453-.043c-.095.036-.095.036-.153.168.036.095.036.095.168.153l.453.044c.095-.037.095-.037.153-.168.058-.132-.073-.19-.168-.154ZM42.76 18.073c.037.095.037.095.168.154l.453.043c.095-.036.095-.036.154-.168.058-.131-.037-.095-.168-.153l-.453-.044c-.095.037-.19.073-.154.168ZM42.46 17.861l-.906-.087c-.095.037-.095.037-.154.168-.058.132.037.095.168.154l.906.087c.095-.037.095-.037.154-.168-.132-.059-.132-.059-.169-.154ZM40.89 18.03l.227.022c.095-.037.095-.037.153-.168-.037-.095-.037-.095-.168-.153l-.227-.022c-.095.036-.095.036-.153.168-.058.131.073.19.168.153ZM44.69 20.82c-.095.036-.095.036-.059.13.037.096.037.096.132.06l.226.02c.095-.036.095-.036.059-.13-.037-.096-.037-.096-.132-.059l-.226-.022ZM43.361 22.748l-.226-.022c-.095.037-.095.037-.154.168.037.095.037.095.169.154l.226.022c.095-.037.095-.037.153-.169.059-.131-.073-.19-.168-.153ZM42.193 22.544l.226.022c.095-.037.095-.037.153-.168.059-.132-.036-.095-.168-.154l-.226-.021c-.095.036-.095.036-.154.168.132.058.169.153.169.153ZM40.57 23.713l1.776.08c.095-.037.095-.037.153-.168-.037-.095-.037-.095-.168-.154l-1.775-.08c-.095.037-.095.037-.153.169-.059.131.131.058.168.153ZM42.977 27.694c-.037-.095-.037-.095-.132-.059l-1.738.016c-.095.036-.095.036-.154.168.037.095.037.095.132.058l1.738-.015a.315.315 0 0 1 .154-.168ZM41.827 24.429c.037.095.037.095.168.153l1.775.08c.095-.037.095-.037.154-.168.058-.132-.037-.095-.132-.059l-1.775-.08c-.131-.058-.19.074-.19.074ZM41.922 25.81l1.739-.016c.095-.036.095-.036.153-.168.059-.132-.036-.095-.131-.058l-1.739.015c-.095.037-.095.037-.153.168-.058.132 0 0 .131.058ZM44.88 26.415c-.036-.095-.036-.095-.13-.059l-1.644-.021c-.095.037-.095.037-.154.168.037.095.037.095.132.058l1.644.022c.094-.037.095-.037.153-.168ZM44.106 24.969c-.036-.095-.036-.095-.131-.059l-2.002-.101c-.095.036-.095.036-.153.168.037.095.037.095.168.153l2.002.102c.021-.227.116-.263.116-.263ZM41.894 25.167c-.095.036-.095.036-.154.168.037.095.037.095.132.058l1.227.073c.095-.037.095-.037.154-.169-.037-.094-.037-.094-.132-.058l-1.227-.072ZM42.443 28.008c-.037-.095-.037-.095-.132-.058l-1.19.022c-.096.037-.096.037-.154.168-.058.131.037.095.132.058l1.19-.022c.095-.036.059-.131.154-.168ZM43.236 23.559l-.548-.007c-.095.036-.095.036-.153.168.036.095.036.095.168.153l.548.007c.095-.036.095-.036.153-.168-.037-.095-.073-.19-.168-.153ZM44.107 23.551l-.453-.043c-.095.036-.095.036-.153.168.036.095.036.095.131.058l.453.044c.095-.037.095-.037.154-.168 0 0-.037-.095-.132-.059ZM45.43 23.587l-.906-.087c-.095.037-.095.037-.154.168.037.095.037.095.132.059l.906.087c.095-.037.095-.037.058-.132l-.037-.095ZM45.977 23.594l-.227-.021c-.095.036-.095.036-.058.13.036.096.036.096.131.06l.227.021c.095-.036.095-.036.058-.131-.095.036-.095.036-.131-.059ZM42.281 27.307c-.036-.095-.036-.095-.131-.059l-1.739.016c-.095.036-.095.036-.153.168.036.095.036.095.168.153l1.738-.015.117-.263ZM43.15 27.3c-.036-.096-.036-.096-.13-.06l-.549-.006c-.095.036-.095.036-.153.168.037.095.037.095.132.058l.547.007c.095-.036.154-.168.154-.168ZM41.925 28.644c-.095.036-.095.036-.154.168-.058.131.037.095.132.058l.547.007c.095-.036.095-.036.154-.168-.037-.095-.037-.095-.132-.058l-.547-.007ZM42.845 29.052l-.964.044c-.095.037-.095.037-.154.169.037.095.037.095.132.058l.964-.044c.095-.037.095-.037.153-.168 0 0-.036-.095-.131-.059ZM45.173 27.174l-.869.008-.095.036-.869.008c-.095.036-.095.036-.153.168.036.095.036.095.131.058l.87-.007.094-.037.87-.008c.095-.036.095-.036.058-.131.095-.037.095-.037-.037-.095ZM45.723 27.181l-.227-.022c-.095.037-.095.037-.058.132s.037.095.131.058l.227.022c.095-.037.095-.037.058-.131l-.131-.059ZM43.932 23.946l-.548-.007c-.095.036-.095.036-.153.168.036.095.036.095.131.058l.548.007c.095-.036.095-.036.154-.168.058-.131-.132-.058-.132-.058ZM43.51 25.962l-.549-.007c-.095.037-.095.037-.153.168-.058.132.036.095.132.059l.547.007c.095-.037.095-.037.154-.168.058-.132-.037-.095-.132-.059Z"/><path opacity=".27" d="M42.42 23.983c.036.095.036.095.168.153l.548.007c.095-.036.095-.036.153-.168.059-.131-.036-.095-.131-.058l-.548-.007c-.132-.059-.227-.022-.19.073ZM42.157 23.866l-1.001-.05c-.095.036-.095.036-.153.167-.059.132.036.095.168.154l1 .05c.096-.036.095-.036.154-.168-.132-.058-.168-.153-.168-.153ZM40.585 24.035l.227.022c.095-.037.095-.037.153-.168-.036-.095-.036-.095-.168-.154l-.226-.021c-.095.036-.095.036-.154.168-.058.131.073.19.168.153ZM44.348 26.729c-.095.036-.095.036-.154.168.037.095.037.095.132.058l.226.022c.095-.037.095-.037.154-.168.058-.132-.037-.095-.132-.058l-.226-.022ZM43.02 28.658l-.227-.022c-.095.037-.095.037-.153.168-.059.132.036.095.131.059l.227.021c.095-.036.095-.036.153-.168.058-.131-.037-.095-.132-.058ZM41.851 28.454l.227.021c.095-.036.095-.036.153-.168.058-.131-.037-.095-.131-.058l-.227-.022c-.095.037-.095.037-.153.168.095-.036.131.059.131.059Z"/></g><path opacity=".05" d="m51.65 18.793-.023.226c-.058.132-.116.263-.248.205l-1.68-.116c-.131-.059-.263-.117-.241-.344l.022-.226-.227-.022c-.321.015-.664.256-.65.578l-.428 6.815c.015.322.256.665.577.65l2.192.028c.416-.051.76-.292.803-.745l.348-6.458c.117-.263-.183-.474-.446-.591Z" fill="#fff"/><g opacity=".3"><path opacity=".3" d="m52.103 20.254-3.587-.255 3.587.255ZM51.959 24.125l-3.646-.123-.036-.095 3.645.123.037.095ZM51.88 25.9l-3.646-.122 3.645.122Z" fill="#fff"/><path opacity=".3" d="m48.396 26.479-.095.036.435-7.363-.34 7.327ZM49.17 26.508l.34-7.327-.34 7.327ZM49.943 26.537l.377-7.232-.377 7.232ZM50.719 26.566l.377-7.232-.377 7.232ZM51.492 26.595l.377-7.232-.377 7.232Z" fill="#fff"/></g><path opacity=".19" d="m20.057 37.827-12.396.086-.132-.059-.975-9.328c-.037-.095.058-.131.058-.131l12.067-2.357c.095-.037.131.058.168.153l1.173 11.541c.132.059.168.154.037.095Z" fill="#fff"/><path opacity=".27" d="M19.016 26.345 6.628 28.715l-.074-.19c-.036-.095.059-.131.059-.131l12.066-2.357c.095-.037.132.058.169.153l.168.154Z" fill="#fff"/><path opacity=".05" d="m20.058 37.827-4.215.097-1.071-10.708 4.28-.776 1.1 11.35s-.058.132-.094.037Z" fill="#fff"/><path opacity=".29" d="m13.24 28.896-.929.14-.832.102c-.19.073-.38.146-.438.278-.059.131-.176.394-.139.49l.14.927.043.964c.052.416.388.723.71.708l1.796-.147c.417-.05.687-.482.635-.898l-.256-2.082c.022-.227-.315-.533-.73-.482Zm.803.672.08 1.059-.094.037-.081-1.06-.146-.38.058-.13.183.474Zm-2.929 1.455.19-.073c.015.321.161.7.46.913l-.364.467c-.037-.095-.168-.153-.147-.38l-.139-.927Zm2.557-.44-.511.088c.021-.226-.147-.38-.315-.533l.27-.431c.395.175.541.555.556.876Zm-2.367.367.511-.088c-.021.226.147.38.22.57l-.27.43c-.205-.248-.446-.591-.46-.912Zm1.855-.279-.19.073-.146-.38.154-.168c.131.059.204.249.182.475Zm-1.344.19.19-.072.147.38-.154.167c-.036-.095-.204-.248-.183-.474Zm.27-.43c-.058.131-.116.263-.08.358l-.19.073c.022-.227.044-.453.103-.585l.168.154Zm.885.313-.512.088.27-.43c.227.021.263.116.242.342Zm0 0c.036.095.014.322-.08.358l-.337-.306.417-.052Zm-.928.14.416-.052-.27.431-.146-.38Zm.416-.052.088.511c-.095.037-.226-.021-.358-.08l.27-.43Zm.095-.036.336.306c-.058.132-.153.168-.343.241l.007-.547Zm-.036-.095-.088-.512c.095-.036.226.022.358.08l-.27.432Zm0 0-.336-.307c.058-.131.153-.168.343-.241l-.007.548Zm-.059.131-.416.052c-.037-.095.022-.227.08-.358l.336.306Zm-.27.431c.132.059.263.117.358.08l-.022.227c-.19.073-.358-.08-.49-.139l.154-.168Zm.358.08c.095-.036.285-.11.343-.24l.168.153a1.105 1.105 0 0 1-.438.277l-.073-.19Zm.343-.24c.059-.132.117-.264.08-.359l.19-.073c-.021.227-.043.453-.102.585l-.168-.154Zm-.066-.738c-.131-.059-.263-.117-.358-.08l.022-.227c.19-.073.358.08.49.139l-.154.168Zm-.394-.176c-.095.037-.285.11-.343.242l-.168-.154c.153-.168.248-.204.438-.277l.073.19Zm-.511.088-.337-.306c.212-.3.46-.505.782-.52l.088.512c-.19.073-.38.146-.534.314Zm0 0a.56.56 0 0 0-.103.585l-.51.088c-.016-.322.065-.68.276-.98l.337.307Zm.117 1.154c.168.154.3.212.49.139l.087.511c-.321.015-.68-.065-.884-.313l.307-.337Zm.584.102c.19-.073.38-.146.438-.277l.373.401c-.212.3-.496.41-.781.52l-.03-.644Zm.438-.277a.56.56 0 0 0 .102-.585l.512-.088c.051.417-.066.68-.277.98l-.337-.307Zm-.117-1.154c-.168-.154-.3-.212-.49-.139l-.087-.511c.321-.015.68.065.847.218l-.27.431Zm-.577-.65.022-.227.927-.139c.095-.037.227.022.358.08l-.328.563c-.336-.307-.694-.387-.98-.277Zm0 0c-.322.014-.57.219-.782.519l-.467-.365c.058-.132.153-.169.343-.242l.928-.139-.022.227Zm-.782.519c-.211.3-.292.657-.277.979l-.19.073-.08-1.06c-.037-.094.021-.226.08-.357l.467.365Zm.184 1.892c.204.248.562.328.884.313l-.022.227-.928.139c-.095.036-.226-.022-.358-.08l.424-.6Zm.884.313c.321-.015.664-.256.781-.519l.504.46c-.058.132-.248.205-.343.242l-.927.139-.015-.322Zm.876-.555c.212-.3.292-.658.277-.98l.19-.072.08 1.059c.038.095.016.321-.08.358l-.467-.365Zm.24-1.074c-.05-.416-.255-.665-.46-.913l.329-.563a.31.31 0 0 1 .146.38l.08 1.06-.094.036Zm-.526-1.65c.19-.074.321-.016.49.138l-.059.131c-.131-.058-.263-.117-.358-.08l-.927.14-.037-.096.891-.234Zm-1.76.24.832-.102.037.095-.928.14c-.095.036-.284.11-.343.24l-.036-.094c.095-.037.248-.205.438-.278Zm-.54.863c.021-.226.08-.358.138-.49l.037.096c-.059.131-.117.263-.08.357l.044.965-.095.036-.045-.964Zm.044.964.095-.036.08 1.059.147.38-.059.131c-.131-.058-.204-.248-.183-.474l-.08-1.06Zm.358 1.498c.132.058.263.116.453.043l.928-.139.036.095-.832.103c-.285.11-.453-.044-.585-.102Zm2.287-.009-.928.14-.036-.095.927-.14c.095-.036.285-.11.343-.24l.037.094-.037-.095c.059-.131.117-.263.08-.358l-.08-1.059.095-.036.08 1.059c.11.285-.16.716-.481.73ZM18.438 27.112l-2.973.49s-.095.037-.036-.095l-.037-.095s-.037-.095.058-.131l2.937-.586s.095-.036.131.059l-.08.358Z" fill="#fff"/><g opacity=".46" fill="#fff"><path opacity=".29" d="m17.504 27.799-2.045.351 2.045-.351c-.036-.096.059-.132 0 0ZM17.198 28.135l-1.724.336 1.724-.336c-.037-.095-.037-.095 0 0ZM18.009 28.259l-2.462.402 2.462-.402c-.037-.095 0 0 0 0ZM18.024 28.58l-2.462.403 2.462-.403c.058-.131.058-.131 0 0 .095-.036 0 0 0 0Z"/></g><g opacity=".46" fill="#fff"><path opacity=".29" d="m17.688 29.69-2.082.257 2.082-.256c.058-.132.058-.132 0 0ZM17.381 30.027l-1.76.241 1.76-.241c-.036-.095.059-.132 0 0ZM18.193 30.15l-2.498.308 2.498-.307c-.037-.096.095-.037 0 0ZM18.207 30.472l-2.498.308 2.498-.308c.058-.132.058-.132 0 0 .095-.037 0 0 0 0Z"/></g><g opacity=".46" fill="#fff"><path opacity=".29" d="m17.871 31.582-2.081.257 2.081-.256c.059-.132.059-.132 0 0 .095-.037 0 0 0 0ZM17.565 31.919l-1.665.205 1.665-.205c.059-.132.059-.132 0 0ZM18.376 32.042l-2.535.213 2.535-.213c.058-.131.095-.036 0 0ZM18.39 32.364l-2.535.213 2.535-.213c.058-.132.058-.132 0 0 .095-.037.095-.037 0 0Z"/></g><path opacity=".19" d="m53.265 16.755-7.569-.684c-.094.037-.131-.059-.168-.153l.233-3.36c-.037-.096.058-.132.153-.169l7.546.91c.095-.036.132.059.073.19l-.21 3.134c.036.095-.058.131-.058.131Z" fill="#fff"/><path opacity=".27" d="m53.57 13.584-7.868-.896.022-.226c-.037-.095.058-.131.153-.168l7.546.91c.095-.037.132.058.073.19l.074.19Z" fill="#fff"/><path opacity=".05" d="m52.722 14.782-6.246-.647c-.094.036-.131-.059-.168-.154l-.036-.095c-.037-.095.058-.131.153-.168l6.246.648c.095-.037.132.058.168.153l.037.095c-.059.132-.059.132-.154.168Z" fill="#fff"/><path opacity=".29" d="m48.354 13.63-1.585-.153-.037-.095.095-.037 1.585.153-.058.132c.095-.037 0 0 0 0Z" fill="#fff"/><path opacity=".27" d="m51.138 14.63-4.66-.495c-.095.036-.132-.059-.169-.154l-.036-.095c-.037-.095.058-.131.153-.168l4.66.495c.096-.036.132.059.169.153l.037.095c.036.095-.059.132-.154.168Z" fill="#fff"/><g opacity=".46" fill="#fff"><path opacity=".29" d="m48.64 14.937-1.944-.233 1.944.233c-.037-.095 0 0 0 0ZM48.296 15.178l-1.585-.152 1.585.152c.058-.131.058-.131 0 0ZM48.955 15.47l-2.265-.218 2.265.218c.095-.036.095-.036 0 0 .095-.036 0 0 0 0ZM48.968 15.792l-2.264-.219 2.264.219c.059-.132.059-.132 0 0 .095-.037 0 0 0 0Z"/></g><path opacity=".19" d="m22.147 23.721-11.555 2.27c-.19.073-.263-.117-.3-.212l-.376-8.905c-.037-.095.022-.226.212-.3l11.496-3.554c.19-.073.358.08.3.212l.435 10.19c.073.19-.022.226-.212.3Z" fill="#fff"/><path opacity=".27" d="M22.02 13.194c.023-.226-.204-.248-.299-.211l-11.496 3.555c-.095.036-.153.168-.212.3l-.022.226 12.03-3.87Z" fill="#fff"/><path opacity=".05" d="m10.518 17.297.14 3.762c.037.095.037.095.132.058l4.93-1.353s.095-.037.058-.131l-.177-3.857c-.036-.095-.036-.095-.131-.059l-4.952 1.58c.058-.131-.037-.095 0 0ZM22.362 23.421l-.399-10.095-3.907 1.178.23 9.941 3.864-.724c.19-.073.285-.11.212-.3Z" fill="#fff"/><path opacity=".05" d="M21.67 13.984c-.036-.095-.036-.095-.131-.059l-3.112.98s-.095.037-.058.132c.036.095.037.095.131.058l3.112-.98.058-.131ZM21.627 14.437c-.036-.095-.036-.095-.131-.059l-3.112.98s-.095.037-.058.132.037.095.131.058l3.112-.98c.095-.036.058-.131.058-.131ZM21.715 14.948c-.036-.095-.036-.095-.131-.058l-3.112.98s-.095.036-.058.131c.036.095.036.095.131.058l3.112-.98s-.037-.095.058-.131ZM14.099 20.933c-.037-.095-.037-.094-.132-.058l-3.09.754s-.094.036-.058.131c.037.095.037.095.132.059l3.09-.754s.094-.037.058-.132ZM14.113 21.255l-3.28.827 3.28-.827ZM14.092 21.481c-.037-.095-.037-.095 0 0l-3.28.827 3.28-.827ZM14.129 21.576l-3.28.827 3.28-.827c.036.095.036.095 0 0ZM14.136 22.446c-.037-.095-.037-.095-.132-.059l-3.09.754s-.094.036-.058.131c.037.095.037.095.132.059l3.09-.754c-.037-.095.058-.131.058-.131ZM14.113 22.672l-3.28.827 3.28-.827c.037.095.037.095 0 0ZM14.187 22.862l-3.28.827 3.28-.827c-.095.037 0 0 0 0ZM14.166 23.088s-.037-.095 0 0l-3.28.827 3.28-.827ZM14.136 23.863c-.037-.095-.037-.095-.132-.059l-3.09.754s-.094.037-.058.131c.037.095.037.095.132.059l3.09-.754.058-.131ZM14.209 24.053l-3.28.826 3.28-.826c.036.095 0 0 0 0ZM14.187 24.28l-3.28.826 3.28-.827ZM14.26 24.47s-.037-.096 0 0l-3.28.826 3.28-.827c-.095.037 0 0 0 0ZM21.795 17.424c-.036-.095-.036-.095-.131-.058l-3.112.98s-.095.036-.058.131c.036.095.036.095.131.059l3.112-.98c.095-.037.095-.037.058-.132Z" fill="#fff"/><path opacity=".27" d="M10.593 20.321s.197-.62.562-1.088c.153-.168.38-.146.679.065.3.212.694.387 1.11.336.607-.125.709-.709.774-1.388.044-.453.124-.811.277-.98.249-.204.439-.277.534-.314.19-.073.284-.11.438-.277.117-.264.27-.431.365-.468l.19-.073s-.417.051-.555.54c-.117.264-.212.3-.402.373-.19.073-.321.015-.533.315-.153.168-.197.62-.277.979-.08.357-.066.679-.183.942-.116.263-.27.431-.591.446-.095.036-.19.073-.226-.022-.322.015-.621-.197-.884-.314-.264-.117-.431-.27-.68-.065-.27.43-.598.993-.598.993Z" fill="#fff"/><path opacity=".27" d="M10.68 20.833s.08-.358.292-.658c.212-.3.482-.73.957-.913.474-.183.774.029 1.037.145.263.117.526.234.848.22.474-.184.503-.958.627-1.769.007-.548.05-1 .204-1.169.212-.3.438-.277.628-.35.095-.037.227.021.417-.052-.19.073-.285.11-.417.051-.226-.021-.416.052-.628.351-.153.168-.197.621-.204 1.17-.029.773-.116 1.68-.59 1.862-.38.146-.68-.065-.848-.219-.263-.116-.563-.328-1.038-.145-.285.11-.628.35-.956.913-.249.205-.329.563-.329.563Z" fill="#fff"/><path opacity=".27" d="M10.79 21.117s-.036-.095.117-.262c.058-.132.248-.205.475-.183.226.021.51-.088.76-.293.474-.183 1.102-.534 1.781-.468l.38-.146c.365-.468.284-1.527.277-2.396.007-.548-.044-.965.014-1.096l.095-.037c.131.059.204.249.314.533l.11.285c.095-.036.095-.036.058-.131a.219.219 0 0 1 .117-.263l.285-.11s-.132-.058-.285.11a.219.219 0 0 0-.117.263c.037.095-.058.131-.058.131-.095.037-.073-.19-.11-.285-.073-.19-.183-.474-.278-.438l-.095.037c-.058.131-.102.584-.014 1.096.008.869.125 2.023-.276 2.396a.31.31 0 0 1-.38.146c-.738.066-1.308.285-1.782.468l-.76.293c-.226-.022-.38.146-.475.182-.19.073-.153.168-.153.168Z" fill="#fff"/><path opacity=".18" d="M8.062 87.92c16.719-2.627 30.936-7.835 42.188-15.448 8.99-6.122 16.156-13.757 21.266-22.817 8.725-15.328 8.417-29.481 8.358-29.636l-.185-.017c-.536 9.426-4.168 17.03-10.8 22.598-4.846 3.993-14.038 9.129-30.294 10.424-9.705.812-17.45-.195-17.528-.165l-.018.184c.078-.03 7.823.977 17.605.136 16.334-1.326 25.526-6.461 30.371-10.454 5.854-4.826 9.303-11.295 10.541-19.13-.497 5.156-2.102 15.26-8.186 25.935-5.063 8.953-12.229 16.588-21.219 22.71C38.909 79.853 24.769 85.032 8.05 87.658l.012.261Z" fill="#fff"/></g><path fill-rule="evenodd" clip-rule="evenodd" d="M14.887 28.978a18.62 18.62 0 0 1-.996-6.032c0-10.155 8.107-18.388 18.108-18.388 10 0 18.108 8.233 18.108 18.388 0 2.113-.351 4.142-.997 6.032-4.963 1.764-10.828 2.784-17.111 2.784-6.284 0-12.15-1.02-17.112-2.784Z" fill="url(#d)"/><path d="M20.752 13.496c.028 4.192 5.07 7.55 11.29 7.492 6.22-.058 11.228-3.504 11.2-7.696-.03-4.192-5.072-7.55-11.29-7.492-6.22.058-11.23 3.504-11.2 7.696Z" fill="url(#e)"/><path fill-rule="evenodd" clip-rule="evenodd" d="M19.18 36.632a3.312 3.312 0 0 1-.045.189c-.467 1.744-2.239 2.785-3.956 2.325-1.718-.46-2.732-2.248-2.264-3.992l.001-.005c1.037-.15 2.26-.077 3.515.26 1.05.281 1.989.71 2.75 1.223Z" fill="url(#f)"/><path fill-rule="evenodd" clip-rule="evenodd" d="M44.82 36.632c.013.063.028.126.045.189.467 1.744 2.238 2.785 3.956 2.325 1.718-.46 2.732-2.248 2.264-3.992l-.001-.005c-1.037-.15-2.26-.077-3.515.26-1.05.281-1.989.71-2.75 1.223Z" fill="url(#g)"/><path fill-rule="evenodd" clip-rule="evenodd" d="M28.785 37.716a3.356 3.356 0 0 0-.006.194c0 1.806 1.442 3.27 3.22 3.27 1.779 0 3.22-1.464 3.22-3.27v-.005c-.963-.414-2.162-.66-3.462-.66-1.088 0-2.105.173-2.972.471Z" fill="url(#h)"/><path fill-rule="evenodd" clip-rule="evenodd" d="M14.888 28.978a18.62 18.62 0 0 1-.997-6.032c0-.663.035-1.317.102-1.962-5.996 1.766-9.8 4.398-9.8 7.337 0 5.317 12.45 9.627 27.806 9.627 15.357 0 27.806-4.31 27.806-9.627 0-2.94-3.803-5.57-9.8-7.337.068.645.102 1.3.102 1.962 0 2.113-.35 4.142-.996 6.032-4.963 1.764-10.828 2.784-17.112 2.784-6.283 0-12.148-1.02-17.111-2.784Z" fill="url(#i)"/><path fill-rule="evenodd" clip-rule="evenodd" d="M49.298 28.396c-5.12 1.475-11.02 2.315-17.3 2.315-6.278 0-12.178-.84-17.299-2.315.06.195.123.39.188.582C19.85 30.742 25.715 31.762 32 31.762c6.283 0 12.148-1.02 17.111-2.784.066-.193.129-.387.188-.582Z" fill="#01D4E4" style="mix-blend-mode:multiply"/><path d="M17.283 38.138c.157-.648-.492-1.36-1.454-1.59-.962-.23-1.867.11-2.023.758-.157.648.492 1.36 1.454 1.59.961.229 1.867-.11 2.023-.758Z" fill="url(#j)"/><path d="M46.572 38.138c-.156-.648.493-1.36 1.454-1.59.962-.23 1.867.11 2.024.758.156.648-.493 1.36-1.454 1.59-.962.229-1.867-.11-2.024-.758Z" fill="url(#k)"/><path d="M33.786 39.566c-.017-.667-.828-1.186-1.816-1.16-.989.028-1.775.59-1.758 1.256.016.666.827 1.185 1.815 1.159.989-.027 1.775-.59 1.759-1.255Z" fill="url(#l)"/><path fill-rule="evenodd" clip-rule="evenodd" d="M13.899 22.41c.013-.48.045-.955.094-1.426l-.082.025a18.899 18.899 0 0 0-.012 1.402Zm36.2 0a19.038 19.038 0 0 0-.011-1.401 19.615 19.615 0 0 0-.083-.025c.05.47.081.947.095 1.427Zm9.664 5.375c-.802 5.068-12.925 9.092-27.764 9.092-14.838 0-26.961-4.024-27.763-9.092a3.418 3.418 0 0 0-.043.536c0 5.317 12.45 9.627 27.806 9.627 15.357 0 27.806-4.31 27.806-9.627 0-.18-.014-.358-.042-.536Z" fill="#01D4E4" style="mix-blend-mode:multiply"/><defs><radialGradient id="b" cx="0" cy="0" r="1" gradientUnits="userSpaceOnUse" gradientTransform="rotate(-156.623 12.517 -8.489) scale(67.1894 65.3001)"><stop offset=".182" stop-color="#57DCEA" stop-opacity="0"/><stop offset=".686" stop-color="#57C8CE"/></radialGradient><radialGradient id="d" cx="0" cy="0" r="1" gradientUnits="userSpaceOnUse" gradientTransform="rotate(-156.623 12.517 -8.489) scale(67.1894 65.3001)"><stop offset=".182" stop-color="#57DCEA" stop-opacity=".2"/><stop offset=".686" stop-color="#57C8CE" stop-opacity=".5"/></radialGradient><radialGradient id="e" cx="0" cy="0" r="1" gradientUnits="userSpaceOnUse" gradientTransform="matrix(19.1576 -10.60927 11.84862 21.39555 27.336 -2.038)"><stop offset=".339" stop-color="#fff"/><stop offset="1" stop-color="#fff" stop-opacity="0"/></radialGradient><radialGradient id="j" cx="0" cy="0" r="1" gradientUnits="userSpaceOnUse" gradientTransform="rotate(165 5.184 21.172) scale(3.48142 3.88811)"><stop offset=".339" stop-color="#fff" stop-opacity=".2"/><stop offset="1" stop-color="#fff" stop-opacity="0"/></radialGradient><radialGradient id="k" cx="0" cy="0" r="1" gradientUnits="userSpaceOnUse" gradientTransform="matrix(3.3628 .90106 -1.00632 3.75563 48.185 40.282)"><stop offset=".339" stop-color="#fff" stop-opacity=".2"/><stop offset="1" stop-color="#fff" stop-opacity="0"/></radialGradient><radialGradient id="l" cx="0" cy="0" r="1" gradientUnits="userSpaceOnUse" gradientTransform="rotate(150 10.758 25.419) scale(3.48142 3.88811)"><stop offset=".339" stop-color="#fff" stop-opacity=".2"/><stop offset="1" stop-color="#fff" stop-opacity="0"/></radialGradient><linearGradient id="a" x1="31.28" y1="26.788" x2="31.28" y2="61.541" gradientUnits="userSpaceOnUse"><stop stop-color="#06C0CF"/><stop offset="1" stop-color="#06C0CF" stop-opacity="0"/></linearGradient><linearGradient id="f" x1="15.179" y1="39.145" x2="16.197" y2="35.346" gradientUnits="userSpaceOnUse"><stop stop-color="#01D4E4"/><stop offset="1" stop-color="#00B0CC"/></linearGradient><linearGradient id="g" x1="48.821" y1="39.145" x2="47.803" y2="35.346" gradientUnits="userSpaceOnUse"><stop stop-color="#01D4E4"/><stop offset="1" stop-color="#00B0CC"/></linearGradient><linearGradient id="h" x1="31.999" y1="41.18" x2="31.999" y2="37.246" gradientUnits="userSpaceOnUse"><stop stop-color="#01D4E4"/><stop offset="1" stop-color="#00B0CC"/></linearGradient><linearGradient id="i" x1="31.999" y1="14.347" x2="31.999" y2="67.82" gradientUnits="userSpaceOnUse"><stop stop-color="#01D4E4"/><stop offset="1" stop-color="#00C9DC"/></linearGradient></defs></svg>