<svg width="49" height="49" fill="none" xmlns="http://www.w3.org/2000/svg"><path d="M12.842 25.052a441.766 441.766 0 0 1-.47-5.168c-.04-.408-.224-1 .348-1.123.633-.163.755.45.898.899.51 1.695.98 3.39 1.798 4.984a5.432 5.432 0 0 0 1.164 1.532c1.226 1.123 3.064.98 4.003-.389 1.185-1.715 1.553-3.737 2.063-5.719.776-2.982.98-6.025 1.41-9.069.04-.306.122-.592.224-.878.102-.286.327-.429.633-.408.307.02.511.183.593.47.204.755.327 1.531.408 2.308.388 4.003 1.001 7.965 2.431 11.744.49 1.307 1.123 2.553 2.737 2.676 1.736.122 2.614-1.062 3.33-2.41.755-1.45 1.184-3.044 1.674-4.596.062-.225.123-.47.225-.674.143-.286.327-.552.694-.47.409.082.43.409.409.715-.061.858-.102 1.695-.204 2.533-.164 1.246-.327 2.492-.225 3.758.082 1.082.123 2.247 1.348 2.737.94.368 2.063-.163 2.941-1.369 1.369-1.838 2.37-3.88 3.452-5.882.266-.47.51-.96.776-1.43.225-.388.49-.858 1.022-.592.449.224.265.756.163 1.103-.266.919-.613 1.797-.94 2.696-1.715 4.8-3.452 9.58-5.167 14.38-.593 1.634-.878 1.715-2.512 1.041-5.454-2.247-11.132-2.941-16.994-2.328-3.493.367-6.904 1.103-10.111 2.655-.776.388-1.246 0-1.511-.715-.756-2.043-1.512-4.085-2.247-6.128a2377.159 2377.159 0 0 1-3.942-11.03c-.205-.571-.715-1.368.06-1.695.716-.306.96.593 1.226 1.103 1.083 2.084 2.206 4.147 3.452 6.128.123.204.266.388.409.592.878 1.205 2.063 1.818 3.002 1.471 1.287-.49 1.287-1.695 1.41-2.819.02-.204 0-.408 0-.612 0-.02 0-.02.02-.02Z" fill="#737380"/><path d="M39.089 41.78c-.021 1.124-.695 1.594-1.737 1.206-7.353-2.676-14.788-2.962-22.345-.94-.98.266-1.94.592-2.9.98-.756.307-1.246.164-1.553-.592-.327-.735-.225-1.266.592-1.654 3.534-1.614 7.252-2.492 11.112-2.758 5.535-.388 10.907.47 16.013 2.737.49.205.838.45.818 1.022ZM26.672 7.017c0 .898-.858 1.756-1.757 1.777-.98.02-1.818-.838-1.797-1.818 0-.98.755-1.716 1.756-1.737 1.021 0 1.798.756 1.798 1.778ZM12.17 14.9c.796 0 1.429.614 1.409 1.41-.021.756-.695 1.45-1.43 1.43-.756 0-1.39-.654-1.39-1.45 0-.817.573-1.39 1.41-1.39ZM37.536 17.699a1.417 1.417 0 0 1-1.389-1.45c.02-.756.592-1.328 1.389-1.328.837-.02 1.41.552 1.43 1.389 0 .797-.593 1.389-1.43 1.389ZM2.201 15.35c.797-.02 1.47.613 1.491 1.369 0 .714-.694 1.45-1.43 1.47-.714.02-1.348-.613-1.388-1.348-.02-.837.53-1.47 1.327-1.49ZM48.874 16.76c0 .735-.613 1.388-1.328 1.409-.715.02-1.491-.674-1.532-1.369-.02-.715.695-1.43 1.43-1.43.837-.02 1.43.552 1.43 1.39Z" fill="#737380"/></svg>