<svg width="25" height="26" fill="none" xmlns="http://www.w3.org/2000/svg"><path d="M4.304 4.558c.805.655 1.11.609 2.628.507l14.315-.858c.305 0 .052-.305-.05-.356l-2.379-1.719c-.452-.355-1.062-.757-2.226-.66L2.734 2.487c-.508.047-.61.301-.406.504l1.976 1.567Zm.86 3.339v15.06c0 .808.401 1.113 1.311 1.061l15.734-.91c.91-.05 1.015-.605 1.015-1.265V6.885c0-.66-.254-1.011-.812-.96l-16.44.96c-.609.051-.808.351-.808 1.008v.004Zm15.53.803c.1.458 0 .91-.458.965l-.757.153v11.116c-.66.356-1.265.56-1.77.56-.811 0-1.015-.255-1.62-1.012l-4.96-7.786v7.532l1.57.356s0 .91-1.264.91l-3.492.203c-.101-.203 0-.71.356-.808l.91-.255v-9.956l-1.265-.102c-.101-.457.153-1.113.859-1.163l3.745-.254 5.162 7.887v-6.978l-1.316-.153c-.102-.554.3-.96.808-1.008l3.491-.207ZM1.57 1.122 15.988.06c1.768-.153 2.226-.051 3.338.757l4.604 3.237c.757.554 1.012.707 1.012 1.312v17.743c0 1.113-.407 1.769-1.82 1.87l-16.75 1.012c-1.057.051-1.565-.102-2.124-.808l-3.39-4.401C.254 19.973 0 19.367 0 18.662V2.892c0-.91.406-1.668 1.57-1.77Z" fill="#17171B"/></svg>