<svg width="64" height="64" fill="none" xmlns="http://www.w3.org/2000/svg"><path d="M28.285 54.458s6.803 4.15 13.095-.216c6.45-4.092 11.3-13.502 7.714-30.526C45.232 6.851 20.365 3.214 12.87 20.761 4.284 41.508 28.285 54.458 28.285 54.458Z" fill="#01D4E4"/><path d="M49.913 30.221c1.158 12.183-3.11 19.42-8.458 22.876-6.176 3.933-12.82.057-12.82.057S5.07 40.321 13.422 20.444c3.006-6.878 8.63-10.492 14.585-10.992-6.23.659-12.289 4.157-15.412 11.468-8.744 20.472 15.416 33.697 15.416 33.697s6.803 4.15 13.095-.216c5.624-3.615 10.442-11.17 8.807-24.18Z" fill="#01D4E4" style="mix-blend-mode:multiply"/><path opacity=".42" d="M25.249 44.05c2.361 2.6 5.857 3.273 7.807 1.502 1.95-1.771 1.617-5.315-.745-7.915-2.361-2.6-5.857-3.273-7.807-1.502-1.95 1.772-1.617 5.315.745 7.916ZM41.697 44.849c2.263 1.348 5.555-.005 7.353-3.023 1.798-3.018 1.42-6.557-.842-7.906-2.264-1.348-5.556.005-7.354 3.023-1.798 3.018-1.42 6.557.843 7.906Z" fill="#A7A9CA"/><path d="M26.005 43.978c2.361 2.6 5.857 3.273 7.807 1.502 1.95-1.772 1.617-5.315-.745-7.916-2.361-2.6-5.857-3.272-7.807-1.5-1.95 1.77-1.617 5.314.745 7.914Z" fill="#fff"/><path opacity=".16" d="M34.892 41.096c.086 1.42-.264 2.723-.93 3.475-1.61 1.664-4.651.85-6.633-1.311-1.982-2.161-2.312-5.276-.702-6.94 1.61-1.664 4.651-.849 6.633 1.312.318.55.911.943.954 1.652-.318-.55-.795-1.377-1.389-1.769-2.3-2.711-5.891-3.208-7.776-1.385-1.886 1.823-1.673 5.372.627 8.084 2.3 2.711 5.892 3.208 7.777 1.385 1.494-1.23 1.684-2.808 1.44-4.503Z" fill="#A7A9CA"/><path d="M42.502 44.721c2.263 1.348 5.555-.005 7.353-3.023 1.798-3.017 1.42-6.557-.843-7.905-2.263-1.349-5.555.005-7.353 3.022-1.798 3.018-1.42 6.558.843 7.906Z" fill="#fff"/><path d="M24.877 33.29s1.335-1.504 5-2.152c3.666-.647-.255-4.259-4.27-2.308-3.58 2.067-2.34 6.125-.73 4.46ZM50.072 30.497s-1.23-1.494-4.705-2.425c-3.635-1.207.888-4.185 4.449-1.834 3.56 2.35 1.644 6.027.255 4.259Z" fill="#108F9B"/><path opacity=".42" d="M23.998 30.494s-1.726 2.099-.772 3.75c.954 1.653 2.044-1.547 5.593-1.76 3.115-.329 3.305-1.908 2.235-3.126 0 0 .477.826-1.06 1.346-1.695.244-3.94.807-5.159 1.877-1.218 1.07-1.504-1.334-.837-2.087ZM46.34 25.306s-.986.202-1.219 1.07c-.233.87 3.084 1.525 4.589 2.86 1.07 1.218 1.939 1.45 1.896.74 0 0-.074 1.145-1.059 1.347l-.434-.117.159.276s-1.23-1.494-4.546-2.15c-3.2-1.09-2.936-3.813.613-4.026Z" fill="#108F9B"/><path opacity=".16" d="M43.74 43.7c-2.057-1.017-2.386-4.132-.702-6.94 1.408-2.649 4.48-3.688 6.536-2.672.434.117.593.392.752.668-.318-.551-.636-1.102-1.505-1.335-2.215-1.292-5.562-.093-7.362 3.15-1.96 2.966-1.312 6.632.903 7.924 2.215 1.291 5.287.252 7.13-2.28-1.886 1.822-3.973 2.66-5.753 1.485Z" fill="#A7A9CA"/><path d="M38.91 48.69c-1.696.245-3.433-.22-4.143-.178l-.16-.275.276-.16c.71-.042 2.723.265 4.418.02 0 0 .435.117.16.276 0 0-.117.434-.276.159.434.116 0 0-.276.159Z" fill="#108F9B"/></svg>