<svg width="50" height="49" fill="none" xmlns="http://www.w3.org/2000/svg"><path d="m29.52 6.866-.382-.392-.392.382-7.215 7.046-6.927-7.244-.38-.398-.395.384-8.975 8.717-.393.382.383.392 9.59 9.826-9.827 9.59-.39.38.38.391 8.718 8.975.381.393.392-.383 7.22-7.05 7.049 7.22.382.39.39-.382L48.2 26.83l.39-.38-.38-.391-18.69-19.192ZM18.264 26.569l.398-.374-.375-.398L17 24.432l-.004-.004-8.185-8.494 5.373-5.228 15.077 15.618-15.62 15.08-5.227-5.371 8.485-8.177.002-.002 1.363-1.285Zm5.588-10.456 5.373-5.228 15.077 15.617-15.62 15.08-5.227-5.37 8.487-8.18 1.363-1.284.398-.375-.375-.397-1.287-1.366-.004-.004-8.185-8.493Z" fill="#737380" stroke="#737380" stroke-width="1.092"/></svg>