<svg width="187" height="25" fill="none" xmlns="http://www.w3.org/2000/svg"><path d="M76.834 24.234c-.963 0-1.761.036-2.56-.036-.163-.018-.417-.381-.435-.6-.055-.725-.019-1.451-.019-2.177V2.907c0-.381.037-.762.055-1.234.944 0 1.815-.055 2.686.036.272.018.563.4.726.672 3.285 5.173 6.553 10.364 9.838 15.555l.69 1.034V1.636c1.107.636 2.05 1.144 2.94 1.688.127.073.163.364.163.545v19.966c0 .09-.036.163-.09.381-.908 0-1.834.054-2.76-.036-.235-.018-.507-.381-.67-.654-3.304-5.209-6.59-10.418-9.875-15.628-.163-.254-.326-.49-.69-.707v17.043ZM110.375 8.497h-2.741c-.218-.78-.326-1.56-.671-2.25-1.616-3.231-6.535-3.485-8.894-.508-.89 1.125-1.434 2.432-1.47 3.83-.055 2.468-.236 4.99.145 7.405.925 5.7 6.552 6.226 9.892 4.21.617-.362.944-.834.908-1.633-.073-1.38-.019-2.777-.019-4.247h-5.1v-2.378c2.577.182 5.336-.671 7.66 1.27.199.164.381.473.399.709.036 1.96.036 3.938 0 5.899 0 .345-.218.762-.472 1.016-1.452 1.543-3.267 2.378-5.336 2.614-2.505.29-4.956.218-7.152-1.27-2.323-1.562-3.757-3.74-3.866-6.535-.109-2.85-.236-5.772.218-8.567.762-4.592 5.046-7.315 9.692-6.68 2.251.309 4.211 1.053 5.609 2.923.926 1.234 1.307 2.577 1.198 4.192ZM65.615 24.234c-1.306 0-2.377.036-3.448-.018-.272-.018-.563-.309-.762-.545-2.36-2.831-4.756-5.626-7.043-8.53-.817-1.035-1.67-1.344-2.977-1.035v10.146c-.925 0-1.76.018-2.595-.018-.145 0-.327-.236-.381-.4-.073-.18-.037-.417-.037-.634V2.707c0-.29.019-.599.037-.943h2.886v9.819c1.016.236 1.778.182 2.504-.708 2.36-2.922 4.792-5.772 7.224-8.621.255-.29.726-.509 1.108-.527.853-.072 1.724-.018 2.813-.018-3.14 3.666-6.153 7.188-9.203 10.745 3.286 3.884 6.48 7.714 9.874 11.78ZM133.645 12.563c.127-1.325.127-3.067.508-4.719.98-4.229 4.301-6.661 8.694-6.498 4.138.145 7.532 3.013 8.095 7.188.472 3.34.672 6.752-.29 10.055-1.216 4.193-4.574 6.262-9.366 5.954-3.594-.236-6.698-3.177-7.315-7.06-.218-1.507-.199-3.014-.326-4.92Zm1.796.11c.109 1.742.109 3.175.327 4.573.527 3.358 2.959 5.572 6.135 5.754 3.54.2 6.226-1.58 7.079-5.046.78-3.213.744-6.552.036-9.783-.744-3.376-3.267-5.246-6.57-5.246-3.376 0-5.718 1.779-6.535 5.228-.363 1.579-.344 3.23-.472 4.52ZM114.242 1.71h1.725v10.508h12.923V1.745h1.869V22.71c0 1.707 0 1.707-1.815 1.453V13.888h-12.941V24.18h-1.761V1.71ZM168.457 7.99h-1.579c-.072-.346-.072-.69-.218-.98-.417-.854-.762-1.816-1.379-2.47-2.124-2.25-6.589-2.25-8.767-.126-1.869 1.833-1.67 4.646.599 5.953 1.398.799 2.995 1.216 4.501 1.851 1.598.672 3.304 1.216 4.756 2.16 3.358 2.16 3.249 6.625-.091 8.822-3.231 2.123-8.748 1.76-11.653-.8-1.343-1.179-1.815-2.704-1.778-4.5h1.579c.036.09.109.163.127.236.708 3.194 2.559 4.737 5.953 4.918 1.598.091 3.14-.145 4.52-1.016 2.541-1.58 2.668-4.828.145-6.425-1.289-.8-2.795-1.253-4.211-1.852-1.615-.671-3.322-1.161-4.828-2.015-3.322-1.924-3.612-6.098-.708-8.64 3.013-2.631 8.821-2.359 11.544.563 1.089 1.216 1.579 2.632 1.488 4.32ZM70.17 24.288H67.05V1.564h3.122v22.724ZM179.149 24.18h-1.779V3.216h-7.95V1.727h17.298c.29 1.398.236 1.452-1.089 1.452h-5.446c-.326 0-.653.037-1.052.055.018 7.006.018 13.921.018 20.946ZM8.466 12.842A276.46 276.46 0 0 1 8.172 9.6c-.026-.256-.141-.628.217-.705.397-.102.474.282.564.564.32 1.063.615 2.126 1.127 3.126.192.371.436.691.73.96.769.705 1.922.615 2.511-.243.743-1.076.973-2.344 1.294-3.587.486-1.87.615-3.778.884-5.687a2.67 2.67 0 0 1 .14-.55c.065-.18.205-.27.398-.257.192.013.32.115.371.295.128.473.205.96.256 1.447.244 2.51.628 4.996 1.524 7.365.308.82.705 1.602 1.717 1.678 1.089.077 1.64-.666 2.088-1.511.474-.91.743-1.909 1.05-2.882.039-.141.077-.295.141-.423.09-.18.205-.346.436-.295.256.052.269.257.256.449-.039.538-.064 1.063-.128 1.588-.103.781-.205 1.563-.141 2.357.051.679.077 1.41.845 1.717.59.23 1.294-.103 1.845-.859.858-1.152 1.486-2.434 2.165-3.689.166-.294.32-.602.486-.896.141-.244.308-.538.64-.372.283.141.167.474.103.692-.166.576-.384 1.127-.589 1.69-1.076 3.01-2.165 6.008-3.24 9.018-.372 1.025-.551 1.076-1.576.654-3.42-1.41-6.981-1.845-10.658-1.46-2.19.23-4.33.691-6.34 1.665-.487.243-.782 0-.948-.449-.474-1.28-.948-2.562-1.41-3.843-.832-2.305-1.652-4.61-2.471-6.917-.128-.358-.449-.858.038-1.063.448-.192.602.372.769.692.678 1.307 1.383 2.6 2.164 3.843.077.128.167.243.257.371.55.756 1.293 1.14 1.883.923.807-.308.807-1.064.883-1.768.013-.128 0-.256 0-.384 0-.013 0-.013.013-.013Z" fill="#737380"/><path d="M24.925 23.333c-.012.704-.435.999-1.088.755-4.612-1.678-9.274-1.857-14.014-.589-.615.167-1.217.372-1.819.615-.474.192-.781.102-.973-.372-.205-.46-.141-.794.371-1.037 2.216-1.012 4.547-1.563 6.968-1.73 3.472-.243 6.84.295 10.043 1.717.307.128.525.282.512.64ZM17.137 1.53c0 .565-.538 1.103-1.101 1.115-.615.013-1.14-.525-1.128-1.14 0-.615.474-1.076 1.102-1.088.64 0 1.127.473 1.127 1.114ZM8.044 6.475c.5 0 .897.385.884.884-.013.474-.436.91-.897.897-.474 0-.87-.41-.87-.91 0-.512.358-.87.883-.87ZM23.951 8.23a.888.888 0 0 1-.87-.91c.012-.473.37-.832.87-.832.526-.013.884.346.897.871 0 .5-.371.871-.897.871ZM1.792 6.757c.5-.013.922.385.935.858 0 .449-.435.91-.897.923-.448.013-.845-.385-.87-.846-.013-.525.332-.922.832-.935ZM31.061 7.641c0 .461-.384.871-.832.884-.449.013-.935-.423-.961-.858-.013-.449.435-.897.896-.897.526-.013.897.346.897.871Z" fill="#737380"/></svg>