<svg width="145" height="27" fill="none" xmlns="http://www.w3.org/2000/svg"><path fill-rule="evenodd" clip-rule="evenodd" d="m131.655 21.648 4.063 4.118 8.819-8.823-8.712-8.716-4.302 3.981 5.076 4.752-4.944 4.688Zm1.344-9.411 4.72 4.723-4.741 4.528 2.749 2.822 7.364-7.367-7.293-7.297-2.799 2.59Z" fill="#737380"/><path fill-rule="evenodd" clip-rule="evenodd" d="m124.508 21.462 4.292 4.304 9.024-8.823-8.914-8.716-4.402 3.981 4.842 4.735-4.842 4.52Zm1.493-9.225 4.83 4.723-4.852 4.528 2.83 2.838 7.552-7.383-7.478-7.312-2.882 2.606Z" fill="#737380"/><path d="M11.296 23.65c0 .7.07 1.648.14 2.034h3.157a28.41 28.41 0 0 1-.175-3.122V7.642H11.12v11.341c0 2.561-1.333 4.315-3.999 4.315-2.771 0-3.824-2.034-3.824-4.35V7.641H0V19.44c0 3.823 2.385 6.77 6.314 6.77 1.965 0 4.07-.807 4.982-2.56ZM21.266 25.684V7.64h-3.262v18.043h3.262ZM17.267 2.426a2.35 2.35 0 0 0 2.35 2.35c1.333 0 2.386-1.052 2.386-2.35A2.366 2.366 0 0 0 19.617.041c-1.297 0-2.35 1.052-2.35 2.385Z" fill="#737380"/><path fill-rule="evenodd" clip-rule="evenodd" d="M33.489 24.058v1.964h-5.157V.625h5.227v9.612c.736-1.088 2.666-2.07 5.051-2.07 5.052 0 8.104 3.859 8.104 9.085 0 5.332-3.438 9.156-8.314 9.156-2.316 0-4.105-1.017-4.911-2.35Zm3.964-2.42c2.07 0 3.928-1.439 3.928-4.35 0-2.947-1.859-4.315-3.928-4.315-2.07 0-3.964 1.368-3.964 4.315 0 2.876 1.894 4.35 3.964 4.35ZM109.33 3.255h4.778v5.097h3.408v4.675h-3.408v6.538c0 1.441.773 1.828 1.932 1.828a6.58 6.58 0 0 0 1.405-.176v4.429c-.21.105-1.089.492-2.775.492-3.618 0-5.831-2.144-5.831-5.624v-7.487h-3.092V8.353h.878c1.827 0 2.705-1.23 2.705-2.847v-2.25ZM54.159 17.07c0 2.918 1.932 4.359 3.934 4.359 2.038 0 3.935-1.406 3.935-4.359 0-2.952-1.897-4.323-3.935-4.323-2.002 0-3.934 1.37-3.934 4.323Zm-5.34 0c0-5.413 4.075-9.244 9.274-9.244 5.234 0 9.274 3.831 9.274 9.244s-4.04 9.28-9.274 9.28c-5.2 0-9.274-3.867-9.274-9.28Zm26.002 0c0 2.918 1.932 4.359 3.935 4.359 2.037 0 3.934-1.406 3.934-4.359 0-2.952-1.897-4.323-3.934-4.323-2.003 0-3.935 1.37-3.935 4.323Zm-5.34 0c0-5.413 4.076-9.244 9.275-9.244 5.234 0 9.274 3.831 9.274 9.244s-4.04 9.28-9.274 9.28c-5.2 0-9.275-3.867-9.275-9.28Zm20.195 3.796c.14 1.934 1.897 5.484 7.377 5.484 4.672 0 6.956-2.918 6.956-5.905 0-2.566-1.757-4.746-5.375-5.484l-2.319-.457c-.773-.14-1.37-.562-1.37-1.3 0-.914.878-1.512 1.897-1.512 1.616 0 2.354.984 2.494 2.144l4.427-.808c-.176-2.039-1.932-5.202-6.991-5.202-3.9 0-6.71 2.6-6.71 5.8 0 2.46 1.475 4.569 5.2 5.377l2.002.457c1.3.282 1.721.809 1.721 1.442 0 .773-.667 1.511-2.037 1.511-1.827 0-2.67-1.16-2.74-2.355l-4.532.808Z" fill="#737380"/></svg>