<svg width="147" height="28" fill="none" xmlns="http://www.w3.org/2000/svg"><path fill-rule="evenodd" clip-rule="evenodd" d="M10.534 18.02c5.217 0 8.804-3.429 8.804-8.37 0-4.869-3.587-8.372-8.804-8.372H.859v26.147h5.725V18.02h3.95ZM6.62 13.006V6.33h3.334c2.174 0 3.66 1.254 3.66 3.356 0 2.029-1.486 3.32-3.66 3.32H6.62Z" fill="#737380"/><path d="M27.501 27.425V9.096h-5.507v18.329H27.5ZM21.523 3.49c0 1.808 1.449 3.283 3.188 3.283 1.812 0 3.261-1.475 3.261-3.282S26.522.208 24.712.208c-1.74 0-3.19 1.476-3.19 3.283Z" fill="#737380"/><path fill-rule="evenodd" clip-rule="evenodd" d="M63.98 20.824c-.506 1.438-1.63 2.397-3.623 2.397-2.137 0-3.985-1.475-4.094-3.54H68.8c.036-.111.109-.96.109-1.734 0-5.9-3.443-9.404-9.023-9.404-4.674 0-8.985 3.762-8.985 9.662 0 6.159 4.42 9.773 9.384 9.773 4.565 0 7.428-2.655 8.297-5.827l-4.601-1.327Zm-7.608-4.758c.108-1.364 1.268-3.097 3.587-3.097 2.609 0 3.55 1.696 3.623 3.097h-7.21Z" fill="#737380"/><path d="M77.227 27.425V.725H71.72v26.7h5.507ZM89.66 13.706c2.138 0 3.225 1.328 3.624 2.729l4.927-1.512c-.797-3.282-3.695-6.38-8.66-6.38-5.29 0-9.493 4.02-9.493 9.736 0 5.68 4.312 9.699 9.675 9.699 4.819 0 7.79-3.172 8.587-6.38l-4.855-1.512c-.399 1.365-1.594 2.729-3.732 2.729-2.283 0-4.203-1.623-4.203-4.536 0-2.95 1.848-4.573 4.13-4.573Z" fill="#737380"/><path fill-rule="evenodd" clip-rule="evenodd" d="M99.826 22.372c0 2.914 2.283 5.57 6.232 5.57 2.392 0 4.131-1.033 5.073-2.582 0 1.253.145 1.917.181 2.065h4.964a18.38 18.38 0 0 1-.217-2.84v-8.961c0-3.762-2.138-7.081-7.972-7.081-5.29 0-7.681 3.467-7.898 6.085l4.782.996c.109-1.365 1.16-2.692 3.08-2.692 1.739 0 2.645.922 2.645 1.991 0 .627-.326 1.106-1.304 1.254l-4.239.664c-2.972.442-5.327 2.286-5.327 5.531Zm7.573 1.512c-1.522 0-2.138-.922-2.138-1.88 0-1.291.87-1.844 2.029-2.029l3.406-.553v.811c0 2.84-1.666 3.651-3.297 3.651Z" fill="#737380"/><path d="M118.483 22.225c.145 2.028 1.956 5.753 7.609 5.753 4.819 0 7.174-3.06 7.174-6.196 0-2.692-1.812-4.978-5.544-5.753l-2.391-.479c-.797-.148-1.413-.59-1.413-1.365 0-.958.906-1.585 1.956-1.585 1.667 0 2.428 1.032 2.573 2.25l4.565-.849c-.181-2.139-1.993-5.458-7.21-5.458-4.022 0-6.921 2.73-6.921 6.085 0 2.581 1.522 4.794 5.363 5.642l2.065.48c1.341.295 1.776.848 1.776 1.512 0 .811-.689 1.586-2.102 1.586-1.884 0-2.754-1.217-2.826-2.471l-4.674.848ZM142.716 3.749h-4.927v2.36c0 1.696-.906 2.987-2.79 2.987h-.906v4.905h3.188v7.855c0 3.651 2.283 5.9 6.015 5.9 1.739 0 2.645-.405 2.862-.515v-4.647a6.677 6.677 0 0 1-1.449.184c-1.196 0-1.993-.405-1.993-1.918v-6.859h3.515V9.096h-3.515V3.75ZM34.188 8.986l-3.736 3.803 5.327 5.42-5.876 5.98 3.737 3.803 5.875-5.98L45.398 28l3.736-3.803L34.188 8.986ZM44.842 8.986l3.736 3.803-3.736 3.802-3.737-3.803 3.737-3.802Z" fill="#737380"/></svg>