<svg width="82" height="40" fill="none" xmlns="http://www.w3.org/2000/svg"><path fill-rule="evenodd" clip-rule="evenodd" d="M2.97 10.646v26.882h76.56V10.646H2.97ZM81.999 9.41V40H.5V9.41L9.453.449h63.593L82 9.409Zm-4.727-1.236L72.023 2.92H10.476L5.226 8.174h72.044Z" fill="#737380"/><path d="M10.863 20.694c.632 0 1.175.143 1.63.43.454.287.785.678.992 1.172v-4.197h2.534v10.975h-2.533v-1.498a2.497 2.497 0 0 1-.993 1.172c-.455.287-.998.43-1.63.43a3.42 3.42 0 0 1-1.838-.504c-.533-.346-.958-.84-1.274-1.484-.306-.642-.46-1.394-.46-2.254 0-.87.154-1.622.46-2.254.316-.643.74-1.133 1.274-1.469a3.347 3.347 0 0 1 1.838-.519Zm.815 2.225c-.544 0-.983.178-1.32.534-.325.356-.488.85-.488 1.483 0 .633.163 1.127.489 1.483.336.356.775.534 1.319.534.533 0 .968-.183 1.304-.549.346-.366.518-.855.518-1.468 0-.623-.172-1.112-.518-1.468-.336-.366-.77-.55-1.304-.55ZM25.617 24.713c0 .208-.024.436-.073.683h-5.735c.03.623.188 1.073.474 1.35.287.266.652.4 1.097.4.375 0 .686-.094.933-.282.247-.188.41-.43.49-.727h2.681a3.562 3.562 0 0 1-.711 1.572c-.366.455-.83.816-1.393 1.083a4.479 4.479 0 0 1-1.882.386c-.81 0-1.531-.168-2.163-.504a3.718 3.718 0 0 1-1.467-1.484c-.356-.642-.534-1.394-.534-2.254 0-.87.173-1.622.519-2.254a3.595 3.595 0 0 1 1.482-1.469c.632-.346 1.353-.519 2.163-.519.82 0 1.541.168 2.164.504a3.5 3.5 0 0 1 1.437 1.424c.346.603.518 1.3.518 2.091Zm-2.563-.385c.01-.544-.138-.95-.444-1.216-.297-.277-.667-.416-1.112-.416-.464 0-.85.139-1.156.416-.306.277-.479.682-.518 1.216h3.23ZM29.946 20.694c1.047 0 1.882.262 2.505.786.632.524 1.027 1.216 1.185 2.077h-2.37a1.27 1.27 0 0 0-.475-.786c-.237-.198-.538-.297-.904-.297-.286 0-.504.064-.652.193-.148.118-.222.291-.222.519 0 .257.133.45.4.578.276.129.706.257 1.29.386.631.148 1.15.302 1.555.46.405.148.756.395 1.052.741.296.346.445.811.445 1.394 0 .475-.129.895-.386 1.261-.257.366-.627.653-1.111.86-.484.208-1.057.312-1.719.312-1.116 0-2.01-.247-2.682-.742-.672-.494-1.082-1.201-1.23-2.12h2.445c.04.355.188.627.445.815.266.188.607.282 1.022.282.287 0 .504-.064.652-.193a.698.698 0 0 0 .222-.534c0-.287-.138-.49-.415-.608-.266-.128-.706-.262-1.318-.4a10.604 10.604 0 0 1-1.512-.416 2.524 2.524 0 0 1-1.022-.712c-.287-.336-.43-.79-.43-1.364 0-.742.282-1.34.845-1.795.563-.464 1.358-.697 2.385-.697ZM34.92 18.47c0-.386.139-.703.416-.95.276-.257.642-.385 1.096-.385.454 0 .82.128 1.097.385.276.247.414.564.414.95 0 .375-.138.692-.414.949-.277.247-.643.37-1.097.37-.454 0-.82-.123-1.096-.37a1.245 1.245 0 0 1-.415-.95Zm2.772 2.328v8.276h-2.534v-8.276h2.534ZM42.583 20.694c.632 0 1.175.143 1.63.43.454.287.79.678 1.007 1.172v-1.498h2.52v8.232c0 .77-.149 1.463-.445 2.076a3.402 3.402 0 0 1-1.364 1.483c-.612.366-1.373.549-2.282.549-1.244 0-2.242-.297-2.993-.89-.74-.583-1.185-1.38-1.333-2.388h2.504c.079.336.257.598.533.786.287.188.657.282 1.112.282.523 0 .943-.153 1.26-.46.325-.296.488-.776.488-1.439v-1.453a2.585 2.585 0 0 1-1.008 1.172c-.454.287-.997.43-1.63.43a3.421 3.421 0 0 1-1.837-.504c-.533-.346-.958-.84-1.274-1.484-.306-.642-.46-1.394-.46-2.254 0-.87.153-1.622.46-2.254.316-.643.74-1.133 1.274-1.469a3.348 3.348 0 0 1 1.838-.519Zm.815 2.225c-.544 0-.983.178-1.32.534-.325.356-.488.85-.488 1.483 0 .633.163 1.127.489 1.483.336.356.775.534 1.319.534.533 0 .968-.183 1.303-.549.346-.366.52-.855.52-1.468 0-.623-.174-1.112-.52-1.468-.335-.366-.77-.55-1.303-.55ZM54.73 20.709c.948 0 1.698.316 2.252.95.563.632.844 1.502.844 2.61v4.805h-2.534v-4.509c0-.554-.148-.984-.444-1.29-.287-.317-.672-.475-1.156-.475-.514 0-.924.163-1.23.49-.296.326-.445.79-.445 1.394v4.39h-2.533v-8.276h2.533v1.513a2.744 2.744 0 0 1 1.053-1.172c.474-.287 1.027-.43 1.66-.43ZM62.227 18.47c0-.386.138-.703.415-.95.276-.257.642-.385 1.096-.385.455 0 .82.128 1.097.385.276.247.415.564.415.95 0 .375-.139.692-.415.949-.277.247-.642.37-1.097.37-.454 0-.82-.123-1.096-.37a1.245 1.245 0 0 1-.415-.95Zm2.77 2.328v8.276h-2.533v-8.276h2.534ZM71.993 20.709c.949 0 1.7.316 2.252.95.563.632.845 1.502.845 2.61v4.805h-2.534v-4.509c0-.554-.148-.984-.444-1.29-.287-.317-.672-.475-1.156-.475-.514 0-.924.163-1.23.49-.296.326-.445.79-.445 1.394v4.39h-2.534v-8.276h2.534v1.513a2.744 2.744 0 0 1 1.052-1.172c.475-.287 1.028-.43 1.66-.43Z" fill="#737380"/></svg>