<svg width="152" height="19" fill="none" xmlns="http://www.w3.org/2000/svg"><path d="M4.593 3.65H.47V.435h4.124V3.65ZM.47 18.374V4.984h4.124v13.39H.47ZM8.244 18.374V4.984h4.149v2.013c.736-.784 1.54-1.374 2.414-1.77a6.702 6.702 0 0 1 2.802-.595c1.124 0 2.11.186 2.96.558.849.372 1.504.902 1.965 1.589.283.428.485.934.606 1.516.122.574.182 1.476.182 2.705v7.374h-4.148v-6.489c0-1.496-.219-2.523-.655-3.08-.429-.558-1.177-.837-2.244-.837-1.205 0-2.156.34-2.851 1.018-.688.672-1.031 1.597-1.031 2.778v6.61H8.244ZM27.726 1.454h4.148v3.53h3.105v3.153h-3.105v5.665c0 .89.077 1.415.23 1.577.162.161.542.242 1.14.242h1.735v3.226h-2.802c-1.593 0-2.733-.25-3.42-.752-.688-.509-1.032-1.334-1.032-2.474V8.137h-1.952V4.984h1.953v-3.53ZM41.02 9.969l6.696.012c-.072-.833-.408-1.488-1.007-1.965-.598-.477-1.378-.716-2.34-.716-.955 0-1.735.243-2.342.728-.598.477-.934 1.124-1.007 1.94Zm11.075 4.063c-.55 1.537-1.504 2.725-2.862 3.566-1.359.833-3.013 1.25-4.962 1.25-2.474 0-4.435-.643-5.883-1.93-1.44-1.293-2.16-3.043-2.16-5.251s.72-3.95 2.16-5.228c1.44-1.285 3.4-1.928 5.883-1.928 2.58 0 4.565.667 5.956 2.001 1.4 1.326 2.099 3.218 2.099 5.676v.57H40.899c.024.979.34 1.76.946 2.342.615.574 1.424.86 2.426.86.785 0 1.46-.165 2.026-.497.566-.34.975-.816 1.225-1.43h4.573ZM58.973 18.374h-4.148V4.984h4.148v1.77c.631-.76 1.278-1.321 1.941-1.685a4.294 4.294 0 0 1 2.11-.558c.146 0 .425.024.838.072.145.009.254.017.327.025v3.53a6.704 6.704 0 0 0-.473-.037 20.523 20.523 0 0 0-.837-.012c-1.213 0-2.167.38-2.863 1.14-.695.76-1.043 1.811-1.043 3.154v5.991ZM67.853 18.374V8.137H65.9V4.984h1.953V3.65c0-1.149.34-1.97 1.019-2.463.687-.501 1.831-.752 3.432-.752h2.802V3.65h-1.734c-.558 0-.926.072-1.104.218-.178.137-.267.412-.267.825v.29h3.105v3.154h-3.105v10.237h-4.148ZM88.292 11.922c-.517.283-1.508.497-2.972.643-.178.024-.311.04-.4.048-1.56.162-2.547.36-2.96.594-.412.235-.619.599-.619 1.092 0 .518.203.934.607 1.25.412.307.958.46 1.638.46 1.407 0 2.547-.335 3.42-1.007.882-.67 1.323-1.544 1.323-2.62 0-.129-.004-.226-.013-.29a.537.537 0 0 0-.024-.17Zm4.052 4.293c0 .526.048.93.145 1.213.097.275.259.49.485.643v.303h-4.573l-.206-1.467a6.928 6.928 0 0 1-2.438 1.467c-.906.316-1.953.474-3.142.474-1.844 0-3.295-.4-4.355-1.201-1.059-.8-1.589-1.884-1.589-3.251 0-1.27.477-2.216 1.432-2.838.954-.63 2.592-1.043 4.912-1.237.308-.025.736-.053 1.286-.085 2.669-.186 4.003-.704 4.003-1.553 0-.51-.258-.89-.776-1.14-.51-.25-1.278-.376-2.305-.376-1.035 0-1.795.182-2.28.546-.486.356-.736.918-.752 1.686l-4.331.012v-.049c0-1.576.651-2.777 1.953-3.602 1.302-.833 3.186-1.25 5.653-1.25 1.213 0 2.284.122 3.214.365.938.234 1.723.586 2.354 1.055.477.364.812.825 1.006 1.383.203.55.304 1.386.304 2.51v6.392ZM111.206 12.928c-.137 1.763-.954 3.19-2.45 4.282-1.496 1.092-3.405 1.637-5.726 1.637-2.458 0-4.435-.655-5.931-1.965-1.488-1.31-2.232-3.048-2.232-5.215 0-2.216.752-3.962 2.256-5.24 1.512-1.277 3.582-1.916 6.211-1.916 2.272 0 4.071.485 5.398 1.455 1.326.962 2.102 2.35 2.329 4.16h-4.573c-.114-.776-.465-1.37-1.056-1.782-.582-.42-1.366-.631-2.353-.631-1.124 0-2.026.364-2.705 1.091-.68.72-1.02 1.682-1.02 2.887s.337 2.167 1.008 2.887c.679.712 1.585 1.067 2.717 1.067.954 0 1.747-.25 2.377-.752.639-.51.991-1.164 1.056-1.965h4.694ZM117.563 9.969l6.695.012c-.072-.833-.408-1.488-1.006-1.965-.599-.477-1.379-.716-2.342-.716-.954 0-1.734.243-2.341.728-.598.477-.934 1.124-1.006 1.94Zm11.074 4.063c-.549 1.537-1.504 2.725-2.862 3.566-1.359.833-3.013 1.25-4.962 1.25-2.474 0-4.435-.643-5.883-1.93-1.439-1.293-2.159-3.043-2.159-5.251s.72-3.95 2.159-5.228c1.44-1.285 3.401-1.928 5.883-1.928 2.58 0 4.565.667 5.956 2.001 1.399 1.326 2.099 3.218 2.099 5.676v.57h-11.427c.024.979.34 1.76.946 2.342.615.574 1.424.86 2.426.86.785 0 1.46-.165 2.026-.497.566-.34.975-.816 1.225-1.43h4.573ZM135.957 11.277v-.24c0-.577.08-1.083.24-1.519.16-.435.415-.835.765-1.2.205-.223 1.05-.72 2.535-1.49l.151-.079c.033-.018.084-.045.151-.078.752-.383 1.128-.754 1.128-1.111a.748.748 0 0 0-.347-.665c-.23-.152-.567-.228-1.01-.228-.499 0-.877.117-1.134.351-.253.231-.387.58-.402 1.044h-2.055c.015-.964.335-1.714.961-2.25.625-.536 1.498-.804 2.619-.804 1.109 0 1.969.22 2.579.66.611.435.916 1.047.916 1.836 0 .499-.149.938-.447 1.318-.297.376-.793.748-1.485 1.116-.249.13-.586.304-1.011.52-1.02.517-1.559.885-1.619 1.105h4.406v1.714h-6.941ZM146.136 7.252c0 .837.149 1.48.447 1.926.298.447.722.67 1.273.67.547 0 .968-.223 1.262-.67.294-.447.441-1.089.441-1.926 0-.838-.147-1.48-.441-1.927-.294-.446-.715-.67-1.262-.67-.551 0-.975.226-1.273.676-.298.447-.447 1.087-.447 1.92Zm-2.01 0c0-1.344.322-2.384.966-3.121.648-.741 1.56-1.112 2.736-1.112 1.195 0 2.116.369 2.764 1.106.652.733.977 1.775.977 3.127 0 1.354-.325 2.4-.977 3.137-.648.737-1.569 1.106-2.764 1.106-1.172 0-2.083-.37-2.73-1.111-.648-.745-.972-1.789-.972-3.132Z" fill="#737380"/></svg>