<svg width="52" height="29" fill="none" xmlns="http://www.w3.org/2000/svg"><path d="M0 14.396V2.069C0 .616.51.092 1.97.092c3.68 0 7.36-.011 11.039.024 4.404.036 8.415 3.704 8.973 8.099.309 2.489-.059 4.811-1.317 6.99-.487.834-.44.858.415 1.227 1.84.798 3.514 1.905 5.164 3.025 3.3 2.25 6.908 3.454 10.92 3.418 4.415-.036 7.608-2.573 8.557-6.908.986-4.477-2.385-9.217-6.931-9.706-2.208-.238-4.428-.035-6.636-.107-.593-.012-.688.405-.688.882.012 2.882.012 5.752.024 8.634 0 .274 0 .56-.024.833-.107 1.418-1.163 2.06-2.41 1.382-1.293-.69-2.445-1.62-3.655-2.442-.226-.154-.238-.393-.238-.63 0-4.383 0-8.766.012-13.16 0-.989.57-1.537 1.626-1.572 1.033-.036 2.054-.012 3.086-.024 3.039-.048 6.09-.143 9.128.119 6.101.524 10.09 3.87 12.107 9.54 3.122 8.752-2.849 18.232-12.06 19.161-5.887.596-11.3-1-16.201-4.251-2.529-1.68-5.152-3.002-8.155-3.538a19.08 19.08 0 0 0-3.18-.321c-1.58-.024-2.09-.572-2.102-2.144 0-.75-.011-1.512 0-2.262.024-1.477.487-1.93 1.959-2.025 2.362-.143 4.214-1.739 4.605-3.99.392-2.215-1.187-4.156-3.43-4.192-1.78-.024-3.56-.024-5.341-.024-.713 0-.879.155-.879.87 0 1.215.048 2.417.048 3.632v15.363c0 2.334-.32 2.656-2.623 2.656-.689 0-1.39.012-2.078-.012-1.103-.036-1.661-.62-1.661-1.727C0 22.768 0 18.576 0 14.396Z" fill="#737380"/></svg>