<svg width="176" height="32" fill="none" xmlns="http://www.w3.org/2000/svg"><path fill-rule="evenodd" clip-rule="evenodd" d="m159.779 26.223 4.931 4.998 10.703-10.709L164.84 9.935l-5.221 4.832 6.16 5.766-6 5.69Zm1.631-11.422 5.729 5.732-5.755 5.496 3.337 3.424 8.936-8.94-8.85-8.855-3.397 3.143Z" fill="url(#a)"/><path fill-rule="evenodd" clip-rule="evenodd" d="m151.105 25.997 5.209 5.224 10.952-10.709-10.818-10.577-5.343 4.831 5.877 5.746-5.877 5.485Zm1.813-11.195 5.862 5.731-5.889 5.496 3.434 3.444 9.165-8.96-9.075-8.874-3.497 3.163Z" fill="url(#b)"/><g opacity=".78" fill="#fff"><path d="M13.708 28.651c0 .852.085 2.001.17 2.47h3.832a34.462 34.462 0 0 1-.213-3.79V9.225h-4.002V22.99c0 3.108-1.617 5.237-4.853 5.237-3.363 0-4.64-2.47-4.64-5.28V9.225H0v14.319c0 4.64 2.895 8.216 7.663 8.216 2.384 0 4.938-.979 6.045-3.108ZM25.809 31.12V9.225h-3.96v21.897h3.96ZM20.956 2.896a2.853 2.853 0 0 0 2.852 2.852c1.618 0 2.895-1.277 2.895-2.852A2.871 2.871 0 0 0 23.808 0c-1.575 0-2.852 1.277-2.852 2.895Z"/></g><path fill-rule="evenodd" clip-rule="evenodd" d="M40.641 29.148v2.384h-6.258V.709h6.343v11.665c.894-1.32 3.236-2.512 6.13-2.512 6.131 0 9.835 4.683 9.835 11.027C56.69 27.358 52.519 32 46.6 32c-2.81 0-4.98-1.235-5.96-2.852Zm4.81-2.938c2.513 0 4.769-1.745 4.769-5.279 0-3.576-2.256-5.236-4.768-5.236s-4.811 1.66-4.811 5.236c0 3.491 2.299 5.28 4.81 5.28Zm87.233-22.308h5.798v6.186h4.136v5.674h-4.136v7.934c0 1.75.938 2.218 2.345 2.218.682 0 1.322-.127 1.705-.213v5.375c-.255.128-1.321.598-3.368.598-4.391 0-7.077-2.603-7.077-6.826v-9.086h-3.752v-5.674h1.066c2.217 0 3.283-1.493 3.283-3.455v-2.73ZM65.727 20.667c0 3.541 2.344 5.29 4.775 5.29 2.473 0 4.775-1.706 4.775-5.29 0-3.583-2.302-5.247-4.775-5.247-2.43 0-4.775 1.664-4.775 5.248Zm-6.48 0c0-6.569 4.945-11.219 11.255-11.219 6.352 0 11.255 4.65 11.255 11.22 0 6.569-4.903 11.262-11.255 11.262-6.31 0-11.256-4.693-11.256-11.262Zm31.556 0c0 3.541 2.345 5.29 4.775 5.29 2.473 0 4.775-1.706 4.775-5.29 0-3.583-2.302-5.247-4.775-5.247-2.43 0-4.775 1.664-4.775 5.248Zm-6.48 0c0-6.569 4.945-11.219 11.255-11.219 6.353 0 11.256 4.65 11.256 11.22 0 6.569-4.903 11.262-11.256 11.262-6.31 0-11.255-4.693-11.255-11.262Zm24.508 4.608c.17 2.346 2.302 6.655 8.953 6.655 5.67 0 8.441-3.541 8.441-7.167 0-3.114-2.131-5.76-6.523-6.655l-2.814-.555c-.937-.17-1.662-.682-1.662-1.578 0-1.11 1.066-1.834 2.302-1.834 1.961 0 2.856 1.194 3.027 2.602l5.372-.981c-.213-2.475-2.345-6.314-8.484-6.314-4.733 0-8.143 3.157-8.143 7.039 0 2.986 1.79 5.546 6.309 6.527l2.431.554c1.577.342 2.089.981 2.089 1.75 0 .938-.81 1.834-2.473 1.834-2.217 0-3.24-1.408-3.326-2.858l-5.499.98Z" fill="#fff"/><defs><linearGradient id="a" x1="162.213" y1="26.032" x2="173.11" y2="15.636" gradientUnits="userSpaceOnUse"><stop stop-color="#0194FF"/><stop offset="1" stop-color="#01EADA"/></linearGradient><linearGradient id="b" x1="153.249" y1="26.528" x2="161.105" y2="14.6" gradientUnits="userSpaceOnUse"><stop stop-color="#721EFF"/><stop offset="1" stop-color="#206BFF"/><stop offset="1" stop-color="#206BFF"/></linearGradient></defs></svg>